<svg width="32" height="32" viewBox="0 0 32 32" fill="none" xmlns="http://www.w3.org/2000/svg">
<rect width="32" height="32" rx="16" fill="#F5F5F5"/>
<rect x="8" y="8" width="16" height="16" rx="6" fill="#F5F5F5"/>
<path d="M20.385 10.1923L20.3939 10.1885H20.3983L16 8L11.6039 10.1885H11.5994L11.615 10.1942L8 12V20L16 24L24 20V12L20.385 10.1923ZM15.3498 22.3769L12.1742 20.7885V18.1038L9.2982 16.6885V13.325L15.3498 16.35V22.3769ZM9.92399 12.3365L12.9132 10.8404L15.9956 12.3731L19.0824 10.8365L22.0827 12.3365L16.0044 15.375L9.92399 12.3365ZM22.7018 16.6981L19.8436 18.1038V20.7788L16.6502 22.375V16.3538L22.7018 13.3288V16.6981Z" fill="#151E00"/>
</svg>
