<svg width="14" height="14" viewBox="0 0 14 14" fill="none" xmlns="http://www.w3.org/2000/svg">
<path d="M7.60999 0H6.38906C6.28053 0 6.22627 0.0518519 6.22627 0.155556V6.26111H0.162791C0.0542636 6.26111 0 6.31296 0 6.41667V7.58333C0 7.68704 0.0542636 7.73889 0.162791 7.73889H6.22627V13.8444C6.22627 13.9481 6.28053 14 6.38906 14H7.60999C7.71852 14 7.77278 13.9481 7.77278 13.8444V7.73889H13.8372C13.9457 7.73889 14 7.68704 14 7.58333V6.41667C14 6.31296 13.9457 6.26111 13.8372 6.26111H7.77278V0.155556C7.77278 0.0518519 7.71852 0 7.60999 0Z" fill="#6F7269"/>
</svg>
