<svg width="12" height="12" viewBox="0 0 12 12" fill="none" xmlns="http://www.w3.org/2000/svg">
<path d="M2.25 12C1.8375 12 1.48425 11.8693 1.19025 11.608C0.896252 11.3467 0.749502 11.0329 0.750002 10.6667V2C0.537502 2 0.359253 1.936 0.215253 1.808C0.0712527 1.68 -0.000497405 1.52178 2.59515e-06 1.33334C2.59515e-06 1.14445 0.0720026 0.986002 0.216003 0.858002C0.360002 0.730002 0.538002 0.666224 0.750002 0.666669H3.75C3.75 0.47778 3.822 0.319335 3.966 0.191336C4.11 0.0633356 4.288 -0.000442137 4.5 2.30681e-06H7.5C7.7125 2.30681e-06 7.89075 0.0640024 8.03475 0.192002C8.17875 0.320002 8.2505 0.478224 8.25 0.666669H11.25C11.4625 0.666669 11.6407 0.730669 11.7847 0.858669C11.9287 0.986669 12.0005 1.14489 12 1.33334C12 1.52222 11.928 1.68067 11.784 1.80867C11.64 1.93667 11.462 2.00045 11.25 2V10.6667C11.25 11.0333 11.103 11.3473 10.809 11.6087C10.515 11.87 10.162 12.0004 9.75 12H2.25ZM2.25 2V10.6667H9.75V2H2.25ZM3.75 8.66667C3.75 8.85556 3.822 9.014 3.966 9.142C4.11 9.27 4.288 9.33378 4.5 9.33333C4.7125 9.33333 4.89075 9.26933 5.03475 9.14133C5.17875 9.01333 5.2505 8.85511 5.25 8.66667V4C5.25 3.81111 5.178 3.65267 5.034 3.52467C4.89 3.39667 4.712 3.33289 4.5 3.33333C4.2875 3.33333 4.10925 3.39733 3.96525 3.52533C3.82125 3.65333 3.7495 3.81156 3.75 4V8.66667ZM6.75 8.66667C6.75 8.85556 6.822 9.014 6.966 9.142C7.11 9.27 7.288 9.33378 7.5 9.33333C7.7125 9.33333 7.89075 9.26933 8.03475 9.14133C8.17875 9.01333 8.2505 8.85511 8.25 8.66667V4C8.25 3.81111 8.178 3.65267 8.034 3.52467C7.89 3.39667 7.712 3.33289 7.5 3.33333C7.2875 3.33333 7.10925 3.39733 6.96525 3.52533C6.82125 3.65333 6.7495 3.81156 6.75 4V8.66667Z" fill="#F30039"/>
</svg>
