<svg width="16" height="16" viewBox="0 0 16 16" fill="none" xmlns="http://www.w3.org/2000/svg">
<path d="M13.7143 1.14281H13.1429V0.58745C13.1429 0.279949 12.9064 0.0160193 12.5989 0.000662138C12.5217 -0.00306045 12.4445 0.0089422 12.372 0.0359429C12.2995 0.0629436 12.2332 0.10438 12.1772 0.157742C12.1212 0.211103 12.0766 0.275279 12.0462 0.346379C12.0157 0.41748 12 0.494026 12 0.571378V1.14281H4V0.58745C4 0.279949 3.76357 0.0160193 3.45607 0.000662138C3.37881 -0.00306045 3.3016 0.0089422 3.22911 0.0359429C3.15662 0.0629436 3.09037 0.10438 3.03437 0.157742C2.97837 0.211103 2.93379 0.275279 2.90333 0.346379C2.87286 0.41748 2.85715 0.494026 2.85714 0.571378V1.14281H2.28571C1.67951 1.14281 1.09812 1.38363 0.66947 1.81228C0.240816 2.24094 0 2.82232 0 3.42853V3.8571C0 3.89499 0.015051 3.93133 0.0418419 3.95812C0.0686328 3.98491 0.104969 3.99996 0.142857 3.99996H15.8571C15.895 3.99996 15.9314 3.98491 15.9582 3.95812C15.985 3.93133 16 3.89499 16 3.8571V3.42853C16 2.82232 15.7592 2.24094 15.3305 1.81228C14.9019 1.38363 14.3205 1.14281 13.7143 1.14281ZM15.8571 5.14282H0.142857C0.104969 5.14282 0.0686328 5.15787 0.0418419 5.18466C0.015051 5.21145 0 5.24779 0 5.28568V13.7143C0 14.3205 0.240816 14.9019 0.66947 15.3305C1.09812 15.7592 1.67951 16 2.28571 16H13.7143C14.3205 16 14.9019 15.7592 15.3305 15.3305C15.7592 14.9019 16 14.3205 16 13.7143V5.28568C16 5.24779 15.985 5.21145 15.9582 5.18466C15.9314 5.15787 15.895 5.14282 15.8571 5.14282ZM7.41357 13.1821C6.97893 13.5253 6.38679 13.7143 5.74571 13.7143C4.75036 13.7143 4.01429 13.0657 3.68643 12.5107C3.60923 12.3802 3.58705 12.2243 3.62476 12.0775C3.66246 11.9306 3.75698 11.8047 3.8875 11.7275C4.01802 11.6503 4.17387 11.6281 4.32075 11.6658C4.46763 11.7035 4.59352 11.798 4.67071 11.9286C4.70929 11.9943 5.06893 12.5714 5.74571 12.5714C6.34071 12.5714 7.03571 12.3111 7.03571 11.5778C7.03571 11.3546 6.99214 11.0439 6.78571 10.8321C6.48071 10.52 5.97321 10.3796 5.71036 10.3796C5.5588 10.3796 5.41346 10.3194 5.3063 10.2123C5.19913 10.1051 5.13893 9.95975 5.13893 9.80819C5.13893 9.65664 5.19913 9.5113 5.3063 9.40413C5.41346 9.29697 5.5588 9.23676 5.71036 9.23676C5.88357 9.23676 6.33214 9.14391 6.61321 8.85641C6.68926 8.78162 6.74927 8.69213 6.78961 8.5934C6.82996 8.49467 6.84977 8.38876 6.84786 8.28212C6.84786 7.45247 5.82536 7.42854 5.70893 7.42854C5.08964 7.42854 4.85893 7.80747 4.84929 7.82354C4.81216 7.89011 4.7621 7.94857 4.70204 7.99549C4.64198 8.04241 4.57314 8.07685 4.49958 8.09677C4.42601 8.11668 4.3492 8.12169 4.27367 8.11148C4.19815 8.10126 4.12543 8.07605 4.05979 8.03731C3.99415 7.99857 3.93693 7.94709 3.89149 7.88591C3.84605 7.82472 3.8133 7.75506 3.79518 7.68103C3.77707 7.607 3.77394 7.5301 3.78599 7.45484C3.79804 7.37958 3.82503 7.3075 3.86536 7.24283C4.13821 6.77854 4.76607 6.28568 5.70893 6.28568C6.29607 6.28568 6.84321 6.45604 7.24929 6.76497C7.7275 7.12926 7.99072 7.66783 7.99072 8.28212C7.99233 8.53679 7.94348 8.78926 7.84699 9.02495C7.75051 9.26065 7.6083 9.4749 7.42857 9.65534C7.3875 9.69748 7.34429 9.73677 7.30036 9.77498C7.40765 9.85248 7.50824 9.93886 7.60107 10.0332C7.97821 10.4189 8.1775 10.9528 8.1775 11.5778C8.17857 12.2228 7.90679 12.7925 7.41357 13.1821ZM12 13C12 13.1515 11.9398 13.2969 11.8326 13.4041C11.7255 13.5112 11.5801 13.5714 11.4286 13.5714C11.277 13.5714 11.1317 13.5112 11.0245 13.4041C10.9173 13.2969 10.8571 13.1515 10.8571 13V8.01033L10.0532 8.60283C9.99281 8.64739 9.92421 8.67961 9.85135 8.69766C9.77849 8.7157 9.70279 8.71922 9.62857 8.70801C9.55435 8.6968 9.48306 8.67109 9.41878 8.63233C9.3545 8.59357 9.29848 8.54253 9.25393 8.48212C9.20937 8.42171 9.17715 8.35312 9.15911 8.28026C9.14106 8.2074 9.13754 8.13169 9.14875 8.05747C9.15996 7.98325 9.18568 7.91197 9.22444 7.84769C9.26319 7.7834 9.31423 7.72739 9.37464 7.68283L10.9254 6.53997C11.0235 6.46761 11.1423 6.42856 11.2643 6.42854H11.4286C11.5801 6.42854 11.7255 6.48874 11.8326 6.59591C11.9398 6.70307 12 6.84842 12 6.99997V13Z" fill="#69744F"/>
</svg>
