<svg width="20" height="21" viewBox="0 0 20 21" fill="none" xmlns="http://www.w3.org/2000/svg">
<g id="Camera">
<path id="Vector" d="M17.8574 4.61133H14.8217L14.0985 2.58454C14.0485 2.44586 13.957 2.32598 13.8363 2.24128C13.7157 2.15658 13.5718 2.1112 13.4244 2.11133H6.57617C6.27483 2.11133 6.00474 2.30106 5.9043 2.58454L5.17885 4.61133H2.14314C1.15653 4.61133 0.357422 5.41044 0.357422 6.39704V16.5756C0.357422 17.5622 1.15653 18.3613 2.14314 18.3613H17.8574C18.844 18.3613 19.6431 17.5622 19.6431 16.5756V6.39704C19.6431 5.41044 18.844 4.61133 17.8574 4.61133ZM18.036 16.5756C18.036 16.6738 17.9556 16.7542 17.8574 16.7542H2.14314C2.04492 16.7542 1.96456 16.6738 1.96456 16.5756V6.39704C1.96456 6.29883 2.04492 6.21847 2.14314 6.21847H6.31055L6.69224 5.15151L7.2034 3.71847H12.7949L13.3061 5.15151L13.6878 6.21847H17.8574C17.9556 6.21847 18.036 6.29883 18.036 6.39704V16.5756ZM10.0003 7.64704C8.02706 7.64704 6.42885 9.24526 6.42885 11.2185C6.42885 13.1917 8.02706 14.7899 10.0003 14.7899C11.9735 14.7899 13.5717 13.1917 13.5717 11.2185C13.5717 9.24526 11.9735 7.64704 10.0003 7.64704ZM10.0003 13.3613C8.81724 13.3613 7.85742 12.4015 7.85742 11.2185C7.85742 10.0354 8.81724 9.07561 10.0003 9.07561C11.1833 9.07561 12.1431 10.0354 12.1431 11.2185C12.1431 12.4015 11.1833 13.3613 10.0003 13.3613Z" fill="#696972"/>
</g>
</svg>
