<svg width="34" height="34" viewBox="0 0 34 34" fill="none" xmlns="http://www.w3.org/2000/svg">
<rect y="0.5" width="34" height="33" rx="16.5" fill="#E6EDFA"/>
<path d="M17 10.4066V25M17 10.4066C15.9618 9.53547 14.552 9 13 9C11.448 9 10.0382 9.53547 9 10.4066V25C10.0382 24.1289 11.448 23.5934 13 23.5934C14.552 23.5934 15.9618 24.1289 17 25M17 10.4066C18.0382 9.53547 19.448 9 21 9C22.5529 9 23.9618 9.53547 25 10.4066V25C23.9618 24.1289 22.5529 23.5934 21 23.5934C19.448 23.5934 18.0382 24.1289 17 25" stroke="#4272DD" stroke-width="1.5" stroke-linecap="round" stroke-linejoin="round"/>
</svg>
