<svg width="24" height="24" viewBox="0 0 24 24" fill="none" xmlns="http://www.w3.org/2000/svg">
<rect width="24" height="24" rx="12" fill="#E6EDFA"/>
<path d="M12 8.70329V16M12 8.70329C11.4809 8.26773 10.776 8 10 8C9.224 8 8.51911 8.26773 8 8.70329V16C8.51911 15.5644 9.224 15.2967 10 15.2967C10.776 15.2967 11.4809 15.5644 12 16M12 8.70329C12.5191 8.26773 13.224 8 14 8C14.7764 8 15.4809 8.26773 16 8.70329V16C15.4809 15.5644 14.7764 15.2967 14 15.2967C13.224 15.2967 12.5191 15.5644 12 16" stroke="#4272DD" stroke-linecap="round" stroke-linejoin="round"/>
</svg>
