<svg width="16" height="16" viewBox="0 0 16 16" fill="none" xmlns="http://www.w3.org/2000/svg">
<path d="M8 0C12.4184 0 16 3.5816 16 8C16 12.4184 12.4184 16 8 16C3.5816 16 0 12.4184 0 8C0 3.5816 3.5816 0 8 0ZM8 1.6C6.30261 1.6 4.67475 2.27428 3.47452 3.47452C2.27428 4.67475 1.6 6.30261 1.6 8C1.6 9.69739 2.27428 11.3253 3.47452 12.5255C4.67475 13.7257 6.30261 14.4 8 14.4C9.69739 14.4 11.3253 13.7257 12.5255 12.5255C13.7257 11.3253 14.4 9.69739 14.4 8C14.4 6.30261 13.7257 4.67475 12.5255 3.47452C11.3253 2.27428 9.69739 1.6 8 1.6ZM11.0664 4.2696C11.1582 4.20523 11.2697 4.17532 11.3814 4.18512C11.493 4.19493 11.5977 4.24382 11.6768 4.3232C11.7558 4.40219 11.8042 4.50664 11.8134 4.61796C11.8227 4.72929 11.7921 4.84028 11.7272 4.9312C9.9832 7.368 9.0232 8.6736 8.8488 8.8488C8.62353 9.07362 8.31826 9.19988 8 9.19988C7.68174 9.19988 7.37647 9.07362 7.1512 8.8488C6.92638 8.62353 6.80012 8.31826 6.80012 8C6.80012 7.68174 6.92638 7.37647 7.1512 7.1512C7.4504 6.8528 8.7552 5.892 11.0664 4.2696ZM12.4 7.2C12.6122 7.2 12.8157 7.28429 12.9657 7.43431C13.1157 7.58434 13.2 7.78783 13.2 8C13.2 8.21217 13.1157 8.41566 12.9657 8.56569C12.8157 8.71571 12.6122 8.8 12.4 8.8C12.1878 8.8 11.9843 8.71571 11.8343 8.56569C11.6843 8.41566 11.6 8.21217 11.6 8C11.6 7.78783 11.6843 7.58434 11.8343 7.43431C11.9843 7.28429 12.1878 7.2 12.4 7.2ZM3.6 7.2C3.81217 7.2 4.01566 7.28429 4.16569 7.43431C4.31571 7.58434 4.4 7.78783 4.4 8C4.4 8.21217 4.31571 8.41566 4.16569 8.56569C4.01566 8.71571 3.81217 8.8 3.6 8.8C3.38783 8.8 3.18434 8.71571 3.03431 8.56569C2.88429 8.41566 2.8 8.21217 2.8 8C2.8 7.78783 2.88429 7.58434 3.03431 7.43431C3.18434 7.28429 3.38783 7.2 3.6 7.2ZM5.4544 4.3232C5.60441 4.47342 5.68859 4.67707 5.68844 4.88937C5.68829 5.10166 5.60382 5.30519 5.4536 5.4552C5.30338 5.60521 5.09973 5.68939 4.88743 5.68924C4.67514 5.6891 4.47161 5.60462 4.3216 5.4544C4.24732 5.38002 4.18843 5.29174 4.14827 5.19459C4.10811 5.09745 4.08748 4.99335 4.08756 4.88823C4.08763 4.78312 4.10841 4.67905 4.1487 4.58196C4.189 4.48487 4.24802 4.39668 4.3224 4.3224C4.47262 4.17239 4.67627 4.08821 4.88857 4.08836C4.99368 4.08843 5.09775 4.10921 5.19484 4.1495C5.29193 4.1898 5.38012 4.24882 5.4544 4.3232ZM8 2.8C8.21217 2.8 8.41566 2.88429 8.56569 3.03431C8.71571 3.18434 8.8 3.38783 8.8 3.6C8.8 3.81217 8.71571 4.01566 8.56569 4.16569C8.41566 4.31571 8.21217 4.4 8 4.4C7.78783 4.4 7.58434 4.31571 7.43431 4.16569C7.28429 4.01566 7.2 3.81217 7.2 3.6C7.2 3.38783 7.28429 3.18434 7.43431 3.03431C7.58434 2.88429 7.78783 2.8 8 2.8Z" fill="#69744F"/>
</svg>
