<svg width="31" height="28" viewBox="0 0 31 28" fill="none" xmlns="http://www.w3.org/2000/svg">
<rect width="31" height="28" rx="4" fill="#FFF7EB"/>
<path d="M22.86 7.44H19.5V6.16C19.5 6.072 19.428 6 19.34 6H18.22C18.132 6 18.06 6.072 18.06 6.16V7.44H12.94V6.16C12.94 6.072 12.868 6 12.78 6H11.66C11.572 6 11.5 6.072 11.5 6.16V7.44H8.14C7.786 7.44 7.5 7.726 7.5 8.08V21.36C7.5 21.714 7.786 22 8.14 22H22.86C23.214 22 23.5 21.714 23.5 21.36V8.08C23.5 7.726 23.214 7.44 22.86 7.44ZM22.06 20.56H8.94V8.88H11.5V9.84C11.5 9.928 11.572 10 11.66 10H12.78C12.868 10 12.94 9.928 12.94 9.84V8.88H18.06V9.84C18.06 9.928 18.132 10 18.22 10H19.34C19.428 10 19.5 9.928 19.5 9.84V8.88H22.06V20.56ZM18.05 12.04H17.15C17.09 12.04 17.034 12.074 17.008 12.128L15.54 15.036H15.484L14.016 12.128C14.0027 12.1017 13.9825 12.0795 13.9574 12.064C13.9323 12.0485 13.9035 12.0402 13.874 12.04H12.954C12.928 12.04 12.9 12.046 12.878 12.06C12.8 12.102 12.772 12.2 12.814 12.278L14.6 15.558H13.628C13.54 15.558 13.468 15.63 13.468 15.718V16.144C13.468 16.232 13.54 16.304 13.628 16.304H14.93V16.978H13.628C13.54 16.978 13.468 17.05 13.468 17.138V17.564C13.468 17.652 13.54 17.724 13.628 17.724H14.93V18.8C14.93 18.888 15.002 18.96 15.09 18.96H15.916C16.004 18.96 16.076 18.888 16.076 18.8V17.724H17.384C17.472 17.724 17.544 17.652 17.544 17.564V17.138C17.544 17.05 17.472 16.978 17.384 16.978H16.076V16.304H17.384C17.472 16.304 17.544 16.232 17.544 16.144V15.718C17.544 15.63 17.472 15.558 17.384 15.558H16.402L18.188 12.276C18.2 12.252 18.208 12.226 18.208 12.2C18.21 12.112 18.14 12.04 18.05 12.04Z" fill="#FFBD66"/>
</svg>
