<svg width="57" height="56" viewBox="0 0 57 56" fill="none" xmlns="http://www.w3.org/2000/svg">
<rect x="0.5" width="56" height="56" rx="28" fill="#FDCCD7" fill-opacity="0.55"/>
<path fill-rule="evenodd" clip-rule="evenodd" d="M25.7417 17.7586C26.9523 15.4138 30.0493 15.4138 31.2583 17.7586L40.0888 34.8621C41.2756 37.1621 39.7517 40 37.332 40H19.6696C17.2483 40 15.7243 37.1621 16.9112 34.8621L25.7417 17.7586ZM30.0825 34.8293C30.0825 35.2866 29.9158 35.7251 29.619 36.0485C29.3222 36.3718 28.9197 36.5534 28.5 36.5534C28.0803 36.5534 27.6778 36.3718 27.381 36.0485C27.0842 35.7251 26.9175 35.2866 26.9175 34.8293C26.9175 34.372 27.0842 33.9335 27.381 33.6102C27.6778 33.2868 28.0803 33.1052 28.5 33.1052C28.9197 33.1052 29.3222 33.2868 29.619 33.6102C29.9158 33.9335 30.0825 34.372 30.0825 34.8293ZM28.5 21.0362C28.0803 21.0362 27.6778 21.2179 27.381 21.5412C27.0842 21.8645 26.9175 22.3031 26.9175 22.7603V27.9328C26.9175 28.39 27.0842 28.8286 27.381 29.1519C27.6778 29.4752 28.0803 29.6569 28.5 29.6569C28.9197 29.6569 29.3222 29.4752 29.619 29.1519C29.9158 28.8286 30.0825 28.39 30.0825 27.9328V22.7603C30.0825 22.3031 29.9158 21.8645 29.619 21.5412C29.3222 21.2179 28.9197 21.0362 28.5 21.0362Z" fill="#F30039"/>
</svg>
