<svg width="19" height="19" viewBox="0 0 19 19" fill="none" xmlns="http://www.w3.org/2000/svg">
<path fill-rule="evenodd" clip-rule="evenodd" d="M4.8407 5.16176C4.82327 4.93419 4.897 4.70979 5.04565 4.53788C5.19431 4.36598 5.40574 4.26066 5.63343 4.24508L12.9198 3.74754C13.1475 3.73202 13.3728 3.80752 13.5462 3.95744C13.7195 4.10736 13.8268 4.31941 13.8443 4.54696L14.4031 11.8289C14.4165 12.0542 14.3407 12.2749 14.1923 12.4436C14.0438 12.6123 13.8344 12.7154 13.6092 12.7308C13.3841 12.7462 13.1612 12.6726 12.9885 12.5258C12.8158 12.379 12.7071 12.1709 12.686 11.9462L12.2861 6.73593L5.79065 14.247C5.64196 14.419 5.43049 14.5243 5.20274 14.5398C4.975 14.5554 4.74964 14.4799 4.57625 14.3299C4.40286 14.18 4.29564 13.9679 4.27817 13.7403C4.2607 13.5127 4.33442 13.2882 4.48311 13.1163L10.9785 5.6052L5.76514 5.96119C5.53743 5.9767 5.31213 5.9012 5.13878 5.75128C4.96542 5.60137 4.8582 5.38931 4.8407 5.16176Z" fill="#FFBD66"/>
</svg>
