<svg width="32" height="32" viewBox="0 0 32 32" fill="none" xmlns="http://www.w3.org/2000/svg">
<rect width="32" height="32" rx="16" fill="#ECECED"/>
<path d="M16 10.9027C16.3583 10.4965 16.8318 10.209 17.3575 10.0785C17.8832 9.94805 18.4361 9.98075 18.9428 10.1723C19.4494 10.3638 19.8857 10.705 20.1937 11.1506C20.5016 11.5962 20.6665 12.125 20.6665 12.6667C20.6665 13.2083 20.5016 13.7371 20.1937 14.1827C19.8857 14.6283 19.4494 14.9695 18.9428 15.1611C18.4361 15.3526 17.8832 15.3853 17.3575 15.2548C16.8318 15.1243 16.3583 14.8369 16 14.4307M18 22H22V21.3333C22.0001 20.6311 21.8153 19.9413 21.4643 19.3331C21.1133 18.725 20.6083 18.2199 20.0002 17.8688C19.3922 17.5177 18.7023 17.3328 18.0001 17.3328C17.2979 17.3327 16.6081 17.5176 16 17.8687M18 22H10V21.3333C10 20.2725 10.4214 19.2551 11.1716 18.5049C11.9217 17.7548 12.9391 17.3333 14 17.3333C15.0609 17.3333 16.0783 17.7548 16.8284 18.5049C17.5786 19.2551 18 20.2725 18 21.3333V22ZM16.6667 12.6667C16.6667 13.3739 16.3857 14.0522 15.8856 14.5523C15.3855 15.0524 14.7072 15.3333 14 15.3333C13.2928 15.3333 12.6145 15.0524 12.1144 14.5523C11.6143 14.0522 11.3333 13.3739 11.3333 12.6667C11.3333 11.9594 11.6143 11.2811 12.1144 10.781C12.6145 10.281 13.2928 10 14 10C14.7072 10 15.3855 10.281 15.8856 10.781C16.3857 11.2811 16.6667 11.9594 16.6667 12.6667V12.6667Z" stroke="#6F7269" stroke-linecap="round" stroke-linejoin="round"/>
</svg>
