<svg width="32" height="32" viewBox="0 0 32 32" fill="none" xmlns="http://www.w3.org/2000/svg">
<rect width="32" height="32" rx="16" fill="#ECECED"/>
<path d="M12.9997 17.9148L10.4158 19.2678C9.86595 19.5595 9.86595 20.0371 10.4158 20.3288L15.0399 22.7897C15.5676 23.0701 16.4361 23.0701 16.9638 22.7897L21.5879 20.3288C22.1378 20.0371 22.1378 19.5595 21.5879 19.2678L19.0903 17.8653M21.5854 11.6852L16.9189 9.20235C16.413 8.93255 15.5851 8.93255 15.0792 9.20235L10.4158 11.6852C9.86595 11.9768 9.86595 12.4541 10.4158 12.7458L15.0399 15.2067C15.5676 15.4874 16.4361 15.4874 16.9638 15.2067L21.5879 12.7458C22.1353 12.4541 22.1353 11.9765 21.5854 11.6852Z" stroke="#6F7269" stroke-linecap="round" stroke-linejoin="round"/>
<path d="M12.9994 14.1216L10.4124 15.4764C9.86253 15.7681 9.86253 16.2457 10.4124 16.5373L15.0364 18.9979C15.5642 19.2786 16.4327 19.2786 16.9604 18.9979L21.5845 16.5373C22.1375 16.2457 22.1375 15.7681 21.5876 15.4764L18.9981 14.1216" stroke="#6F7269" stroke-linecap="round" stroke-linejoin="round"/>
</svg>
