<svg width="16" height="14" viewBox="0 0 16 14" fill="none" xmlns="http://www.w3.org/2000/svg">
<path d="M2.99996 13.9953C2.44997 13.9953 1.97898 13.843 1.58698 13.5384C1.19499 13.2338 0.999323 12.868 0.99999 12.4411V2.33906C0.71666 2.33906 0.478997 2.26446 0.287 2.11526C0.0950023 1.96606 -0.000663197 1.78164 3.46015e-06 1.56198C3.46015e-06 1.34181 0.0960022 1.15712 0.288 1.00792C0.479997 0.858721 0.717327 0.78438 0.99999 0.784898H4.99993C4.99993 0.564725 5.09593 0.380038 5.28793 0.230838C5.47993 0.081638 5.71726 0.00729713 5.99992 0.00781519H9.99987C10.2832 0.00781519 10.5209 0.0824152 10.7129 0.231615C10.9049 0.380815 11.0005 0.565243 10.9999 0.784898H14.9998C15.2831 0.784898 15.5208 0.859498 15.7128 1.0087C15.9048 1.1579 16.0005 1.34233 15.9998 1.56198C15.9998 1.78215 15.9038 1.96684 15.7118 2.11604C15.5198 2.26524 15.2825 2.33958 14.9998 2.33906V12.4411C14.9998 12.8685 14.8038 13.2345 14.4118 13.5392C14.0198 13.8438 13.5491 13.9958 12.9998 13.9953H2.99996ZM2.99996 2.33906V12.4411H12.9998V2.33906H2.99996ZM4.99993 10.1099C4.99993 10.3301 5.09593 10.5148 5.28793 10.664C5.47993 10.8132 5.71726 10.8875 5.99992 10.887C6.28325 10.887 6.52091 10.8124 6.71291 10.6632C6.90491 10.514 7.00057 10.3296 6.99991 10.1099V4.67031C6.99991 4.45014 6.90391 4.26545 6.71191 4.11625C6.51991 3.96705 6.28258 3.89271 5.99992 3.89323C5.71659 3.89323 5.47893 3.96783 5.28693 4.11703C5.09493 4.26623 4.99927 4.45066 4.99993 4.67031V10.1099ZM8.99988 10.1099C8.99988 10.3301 9.09588 10.5148 9.28788 10.664C9.47987 10.8132 9.7172 10.8875 9.99987 10.887C10.2832 10.887 10.5209 10.8124 10.7129 10.6632C10.9049 10.514 11.0005 10.3296 10.9999 10.1099V4.67031C10.9999 4.45014 10.9039 4.26545 10.7119 4.11625C10.5199 3.96705 10.2825 3.89271 9.99987 3.89323C9.71654 3.89323 9.47887 3.96783 9.28687 4.11703C9.09488 4.26623 8.99921 4.45066 8.99988 4.67031V10.1099Z" fill="#151E00"/>
</svg>
