<svg width="34" height="34" viewBox="0 0 34 34" fill="none" xmlns="http://www.w3.org/2000/svg">
<rect y="0.5" width="34" height="33" rx="16.5" fill="#E0FFEB"/>
<path d="M14.3333 13.4444L17 17.8889M17 17.8889L19.6667 13.4444M17 17.8889V21.4444M14.3333 17H19.6667M14.3333 19.6667H19.6667M25 17C25 18.0506 24.7931 19.0909 24.391 20.0615C23.989 21.0321 23.3997 21.914 22.6569 22.6569C21.914 23.3997 21.0321 23.989 20.0615 24.391C19.0909 24.7931 18.0506 25 17 25C15.9494 25 14.9091 24.7931 13.9385 24.391C12.9679 23.989 12.086 23.3997 11.3431 22.6569C10.6003 21.914 10.011 21.0321 9.60896 20.0615C9.20693 19.0909 9 18.0506 9 17C9 14.8783 9.84285 12.8434 11.3431 11.3431C12.8434 9.84285 14.8783 9 17 9C19.1217 9 21.1566 9.84285 22.6569 11.3431C24.1571 12.8434 25 14.8783 25 17Z" stroke="#17D05B" stroke-width="1.5" stroke-linecap="round" stroke-linejoin="round"/>
</svg>
