<svg width="24" height="24" viewBox="0 0 24 24" fill="none" xmlns="http://www.w3.org/2000/svg">
<rect width="24" height="24" rx="12" fill="#E0FFEB"/>
<path d="M10.6667 10.2222L12 12.4444M12 12.4444L13.3333 10.2222M12 12.4444V14.2222M10.6667 12H13.3333M10.6667 13.3333H13.3333M16 12C16 12.5253 15.8965 13.0454 15.6955 13.5307C15.4945 14.016 15.1999 14.457 14.8284 14.8284C14.457 15.1999 14.016 15.4945 13.5307 15.6955C13.0454 15.8965 12.5253 16 12 16C11.4747 16 10.9546 15.8965 10.4693 15.6955C9.98396 15.4945 9.54301 15.1999 9.17157 14.8284C8.80014 14.457 8.5055 14.016 8.30448 13.5307C8.10346 13.0454 8 12.5253 8 12C8 10.9391 8.42143 9.92172 9.17157 9.17157C9.92172 8.42143 10.9391 8 12 8C13.0609 8 14.0783 8.42143 14.8284 9.17157C15.5786 9.92172 16 10.9391 16 12Z" stroke="#17D05B" stroke-linecap="round" stroke-linejoin="round"/>
</svg>
