<svg width="14" height="14" viewBox="0 0 14 14" fill="none" xmlns="http://www.w3.org/2000/svg">
<path d="M4.42857 7.66667H9.57143M11.2857 13H2.71429C2.25963 13 1.82359 12.8595 1.5021 12.6095C1.18061 12.3594 1 12.0203 1 11.6667V2.33333C1 1.97971 1.18061 1.64057 1.5021 1.39052C1.82359 1.14048 2.25963 1 2.71429 1H7.50229C7.7296 1.00004 7.94758 1.0703 8.10829 1.19533L12.7489 4.80467C12.9096 4.92966 13 5.0992 13 5.276V11.6667C13 12.0203 12.8194 12.3594 12.4979 12.6095C12.1764 12.8595 11.7404 13 11.2857 13Z" stroke="#F30039" stroke-width="2" stroke-linecap="round" stroke-linejoin="round"/>
</svg>
