<svg width="33" height="32" viewBox="0 0 33 32" fill="none" xmlns="http://www.w3.org/2000/svg">
<path d="M4.4879 5.04458L3.86568 4.66049H18.2004C18.2001 4.68721 18.2 4.71396 18.2 4.74074C18.2 6.8292 18.8945 8.73176 20.0455 10.2753L16.5006 12.4599L4.4879 5.04458ZM2.2 4.66049V6.32099V9.48148V10.3183L2.9121 10.7579L15.7121 18.6591L16.5009 19.146L17.2892 18.6583L25.1773 13.7781C25.9701 14.0062 26.8077 14.142 27.7 14.142C28.8685 14.142 29.9778 13.9258 31 13.542V26.9444H2V4.66049H2.2ZM27.7 7.98148C25.8548 7.98148 24.4 6.51801 24.4 4.74074C24.4 2.96347 25.8548 1.5 27.7 1.5C29.5452 1.5 31 2.96347 31 4.74074C31 6.51801 29.5452 7.98148 27.7 7.98148Z" fill="#84BD00" stroke="#84BD00" stroke-width="3"/>
</svg>
