<svg width="271" height="212" viewBox="0 0 271 212" fill="none" xmlns="http://www.w3.org/2000/svg">
<g id="undraw_mail_sent_re_0ofv 1" clip-path="url(#clip0_1_1146)">
<g id="Vector">
<path d="M268.622 81.0731C268.525 81.0731 268.431 81.0472 268.351 80.9988L136.864 1.19826C136.464 0.956547 135.989 0.827369 135.502 0.828093C135.015 0.828816 134.54 0.959405 134.141 1.20231L3.60114 80.998C3.49788 81.0611 3.3701 81.0859 3.24588 81.0669C3.12166 81.0479 3.01118 80.9867 2.93876 80.8967C2.86634 80.8067 2.8379 80.6954 2.8597 80.5871C2.8815 80.4789 2.95176 80.3826 3.05501 80.3195L133.595 0.523772C134.154 0.183755 134.819 0.000980138 135.5 3.93095e-06C136.182 -0.000972276 136.848 0.179896 137.408 0.518309L268.895 80.3187C268.978 80.3691 269.04 80.4413 269.073 80.5248C269.105 80.6083 269.107 80.6988 269.076 80.7829C269.046 80.8671 268.986 80.9406 268.904 80.9928C268.822 81.045 268.724 81.0731 268.622 81.0731L268.622 81.0731Z" fill="#F1F1F1"/>
<path d="M268.622 81.0731C268.525 81.0731 268.431 81.0472 268.351 80.9988L136.864 1.19826C136.464 0.956547 135.989 0.827369 135.502 0.828093C135.015 0.828816 134.54 0.959405 134.141 1.20231L3.60114 80.998C3.49788 81.0611 3.3701 81.0859 3.24588 81.0669C3.12166 81.0479 3.01118 80.9867 2.93876 80.8967C2.86634 80.8067 2.8379 80.6954 2.8597 80.5871C2.8815 80.4789 2.95176 80.3826 3.05501 80.3195L133.595 0.523772C134.154 0.183755 134.819 0.000980138 135.5 3.93095e-06C136.182 -0.000972276 136.848 0.179896 137.408 0.518309L268.895 80.3187C268.978 80.3691 269.04 80.4413 269.073 80.5248C269.105 80.6083 269.107 80.6988 269.076 80.7829C269.046 80.8671 268.986 80.9406 268.904 80.9928C268.822 81.045 268.724 81.0731 268.622 81.0731L268.622 81.0731Z" fill="#E6E6E6"/>
</g>
<path id="Vector_2" d="M11.0605 83.9013L135.631 3.44629L261.147 89.626L142.05 151.153L77.3899 138.309L11.0605 83.9013Z" fill="#EBFBF1"/>
<path id="Vector_3" d="M82.848 189.157H21.3071C20.9292 189.157 20.5549 189.093 20.2057 188.967C19.8564 188.841 19.539 188.657 19.2716 188.424C19.0043 188.191 18.7922 187.915 18.6474 187.611C18.5027 187.306 18.4282 186.98 18.4282 186.651C18.4282 186.322 18.5027 185.996 18.6474 185.691C18.7922 185.387 19.0043 185.111 19.2716 184.878C19.539 184.646 19.8564 184.461 20.2057 184.335C20.5549 184.21 20.9292 184.145 21.3071 184.146H82.848C83.2259 184.145 83.6001 184.21 83.9494 184.335C84.2987 184.461 84.616 184.646 84.8834 184.878C85.1508 185.111 85.3629 185.387 85.5076 185.691C85.6524 185.996 85.7268 186.322 85.7268 186.651C85.7268 186.98 85.6524 187.306 85.5076 187.611C85.3629 187.915 85.1508 188.191 84.8834 188.424C84.616 188.657 84.2987 188.841 83.9494 188.967C83.6001 189.093 83.2259 189.157 82.848 189.157Z" fill="#17D05B"/>
<path id="Vector_4" d="M43.3866 178.384H21.3071C20.9292 178.385 20.5549 178.32 20.2057 178.194C19.8564 178.069 19.539 177.884 19.2716 177.651C19.0043 177.419 18.7922 177.142 18.6474 176.838C18.5027 176.534 18.4282 176.208 18.4282 175.879C18.4282 175.549 18.5027 175.223 18.6474 174.919C18.7922 174.615 19.0043 174.338 19.2716 174.106C19.539 173.873 19.8564 173.689 20.2057 173.563C20.5549 173.437 20.9292 173.373 21.3071 173.373H43.3866C43.7645 173.373 44.1387 173.437 44.488 173.563C44.8373 173.689 45.1546 173.873 45.422 174.106C45.6894 174.338 45.9015 174.615 46.0462 174.919C46.191 175.223 46.2654 175.549 46.2654 175.879C46.2654 176.208 46.191 176.534 46.0462 176.838C45.9015 177.142 45.6894 177.419 45.422 177.651C45.1546 177.884 44.8373 178.069 44.488 178.194C44.1387 178.32 43.7645 178.385 43.3866 178.384Z" fill="#17D05B"/>
<path id="Vector_5" d="M137.383 128.714C136.915 128.715 136.452 128.635 136.019 128.481L59.1924 100.701V13.745C59.1934 12.9761 59.5444 12.2389 60.1683 11.6952C60.7922 11.1515 61.6381 10.8456 62.5205 10.8447H209.906C210.789 10.8456 211.635 11.1515 212.259 11.6952C212.883 12.2389 213.233 12.9761 213.234 13.745V100.762L213.09 100.816L138.788 128.468C138.343 128.631 137.866 128.714 137.383 128.714Z" fill="white"/>
<g id="Vector_6">
<path d="M137.383 128.921C136.884 128.922 136.39 128.837 135.928 128.673L58.9546 100.84V13.7451C58.9557 12.9213 59.3317 12.1314 60.0002 11.5489C60.6687 10.9663 61.575 10.6386 62.5204 10.6377H209.906C210.852 10.6386 211.758 10.9663 212.427 11.5489C213.095 12.1314 213.471 12.9213 213.472 13.7451V100.899L138.882 128.658C138.407 128.832 137.898 128.922 137.383 128.921ZM59.9054 100.286L136.291 127.907C137.003 128.159 137.801 128.155 138.51 127.896L212.521 100.352V13.7451C212.52 13.141 212.245 12.5618 211.754 12.1346C211.264 11.7074 210.6 11.4671 209.906 11.4663H62.5204C61.8271 11.4671 61.1625 11.7074 60.6723 12.1346C60.1821 12.5618 59.9063 13.141 59.9055 13.7451L59.9054 100.286Z" fill="#F1F1F1"/>
<path d="M137.383 128.921C136.884 128.922 136.39 128.837 135.928 128.673L58.9546 100.84V13.7451C58.9557 12.9213 59.3317 12.1314 60.0002 11.5489C60.6687 10.9663 61.575 10.6386 62.5204 10.6377H209.906C210.852 10.6386 211.758 10.9663 212.427 11.5489C213.095 12.1314 213.471 12.9213 213.472 13.7451V100.899L138.882 128.658C138.407 128.832 137.898 128.922 137.383 128.921ZM59.9054 100.286L136.291 127.907C137.003 128.159 137.801 128.155 138.51 127.896L212.521 100.352V13.7451C212.52 13.141 212.245 12.5618 211.754 12.1346C211.264 11.7074 210.6 11.4671 209.906 11.4663H62.5204C61.8271 11.4671 61.1625 11.7074 60.6723 12.1346C60.1821 12.5618 59.9063 13.141 59.9055 13.7451L59.9054 100.286Z" fill="#E6E6E6"/>
</g>
<g id="Vector_7">
<path d="M267.672 80.2441H267.577L212.996 100.554L138.319 128.343C138.028 128.45 137.715 128.506 137.398 128.507C137.081 128.509 136.768 128.456 136.475 128.351L59.4298 100.496L3.50868 80.2773L3.42325 80.2441H3.32807C2.44571 80.245 1.59977 80.5508 0.975848 81.0946C0.351925 81.6383 0.000979047 82.3755 0 83.1444V209.099C0.000980303 209.868 0.351926 210.606 0.975848 211.149C1.59977 211.693 2.44571 211.999 3.32807 212H267.672C268.554 211.999 269.4 211.693 270.024 211.149C270.648 210.606 270.999 209.868 271 209.099V83.1444C270.999 82.3755 270.648 81.6383 270.024 81.0946C269.4 80.5508 268.554 80.245 267.672 80.2441ZM270.049 209.099C270.049 209.649 269.798 210.176 269.353 210.564C268.907 210.953 268.302 211.171 267.672 211.171H3.32807C2.69768 211.171 2.09318 210.953 1.64742 210.564C1.20167 210.176 0.951129 209.649 0.950877 209.099V83.1444C0.951739 82.6087 1.19019 82.094 1.61639 81.7079C2.04258 81.3218 2.62352 81.0943 3.23776 81.0728L59.4298 101.391L136.109 129.118C136.939 129.412 137.869 129.408 138.695 129.106L212.996 101.453L267.767 81.0728C268.38 81.0959 268.96 81.3241 269.385 81.7099C269.81 82.0958 270.048 82.6096 270.049 83.1444V209.099Z" fill="#E6E6E6"/>
<path d="M267.672 80.2441H267.577L212.996 100.554L138.319 128.343C138.028 128.45 137.715 128.506 137.398 128.507C137.081 128.509 136.768 128.456 136.475 128.351L59.4298 100.496L3.50868 80.2773L3.42325 80.2441H3.32807C2.44571 80.245 1.59977 80.5508 0.975848 81.0946C0.351925 81.6383 0.000979047 82.3755 0 83.1444V209.099C0.000980303 209.868 0.351926 210.606 0.975848 211.149C1.59977 211.693 2.44571 211.999 3.32807 212H267.672C268.554 211.999 269.4 211.693 270.024 211.149C270.648 210.606 270.999 209.868 271 209.099V83.1444C270.999 82.3755 270.648 81.6383 270.024 81.0946C269.4 80.5508 268.554 80.245 267.672 80.2441ZM270.049 209.099C270.049 209.649 269.798 210.176 269.353 210.564C268.907 210.953 268.302 211.171 267.672 211.171H3.32807C2.69768 211.171 2.09318 210.953 1.64742 210.564C1.20167 210.176 0.951129 209.649 0.950877 209.099V83.1444C0.951739 82.6087 1.19019 82.094 1.61639 81.7079C2.04258 81.3218 2.62352 81.0943 3.23776 81.0728L59.4298 101.391L136.109 129.118C136.939 129.412 137.869 129.408 138.695 129.106L212.996 101.453L267.767 81.0728C268.38 81.0959 268.96 81.3241 269.385 81.7099C269.81 82.0958 270.048 82.6096 270.049 83.1444V209.099Z" fill="#ADACB0"/>
</g>
<path id="Vector_8" d="M136.615 104.057C133.779 104.061 131.018 103.262 128.748 101.78L128.607 101.687L98.9824 81.921C97.6105 81.0049 96.4589 79.8623 95.5937 78.5584C94.7284 77.2545 94.1663 75.8148 93.9395 74.3216C93.7127 72.8283 93.8256 71.3108 94.2718 69.8556C94.7179 68.4004 95.4886 67.036 96.5398 65.8404C97.5911 64.6447 98.9022 63.6412 100.398 62.8872C101.895 62.1331 103.547 61.6433 105.26 61.4456C106.974 61.248 108.715 61.3464 110.385 61.7352C112.055 62.124 113.62 62.7956 114.992 63.7117L134.181 76.5342L179.528 24.9976C180.579 23.8022 181.891 22.7991 183.387 22.0455C184.884 21.2919 186.536 20.8026 188.25 20.6055C189.963 20.4084 191.705 20.5073 193.374 20.8967C195.044 21.286 196.609 21.9582 197.981 22.8748L197.699 23.2084L197.988 22.8796C200.755 24.7327 202.565 27.4666 203.022 30.4814C203.479 33.4962 202.544 36.5458 200.424 38.961L147.086 99.5804C145.852 100.977 144.266 102.108 142.45 102.884C140.634 103.66 138.637 104.062 136.615 104.057Z" fill="#17D05B"/>
</g>
<defs>
<clipPath id="clip0_1_1146">
<rect width="271" height="212" fill="white"/>
</clipPath>
</defs>
</svg>
