<svg width="57" height="56" viewBox="0 0 57 56" fill="none" xmlns="http://www.w3.org/2000/svg">
<rect x="0.5" width="56" height="56" rx="24" fill="#FEDEE5"/>
<g clip-path="url(#clip0_15054_11963)">
<path d="M26.7866 33.4286C26.7866 33.8832 26.9672 34.3193 27.2887 34.6408C27.6102 34.9622 28.0462 35.1429 28.5009 35.1429C28.9556 35.1429 29.3916 34.9622 29.7131 34.6408C30.0346 34.3193 30.2152 33.8832 30.2152 33.4286C30.2152 32.9739 30.0346 32.5379 29.7131 32.2164C29.3916 31.8949 28.9556 31.7143 28.5009 31.7143C28.0462 31.7143 27.6102 31.8949 27.2887 32.2164C26.9672 32.5379 26.7866 32.9739 26.7866 33.4286ZM27.358 22.5714V29.1429C27.358 29.3 27.4866 29.4286 27.6438 29.4286H29.358C29.5152 29.4286 29.6438 29.3 29.6438 29.1429V22.5714C29.6438 22.4143 29.5152 22.2857 29.358 22.2857H27.6438C27.4866 22.2857 27.358 22.4143 27.358 22.5714ZM44.3473 38.2857L29.4902 12.5714C29.2688 12.1893 28.8866 12 28.5009 12C28.1152 12 27.7295 12.1893 27.5116 12.5714L12.6545 38.2857C12.2152 39.05 12.7652 40 13.6438 40H43.358C44.2366 40 44.7866 39.05 44.3473 38.2857ZM16.3652 37.2893L28.5009 16.2821L40.6366 37.2893H16.3652Z" fill="#F30039"/>
</g>
<defs>
<clipPath id="clip0_15054_11963">
<rect width="32" height="32" fill="white" transform="translate(12.5 10)"/>
</clipPath>
</defs>
</svg>
