<svg width="32" height="32" viewBox="0 0 32 32" fill="none" xmlns="http://www.w3.org/2000/svg">
        <g clip-path="url(#clip0_9652_475)">
        <path d="M0 0H32V32H0V0Z" fill="#003399"/>
        <path d="M16.0001 14.5731L15.6445 16.1533L16.2371 16.3114L16.0001 14.5731Z" fill="#FFCC00"/>
        <path d="M15.9999 14.5731L16.3555 16.1533L15.7629 16.3114L15.9999 14.5731Z" fill="#FFCC00"/>
        <path d="M17.1402 15.6173L15.8936 15.7748L15.9303 16.5027L17.1402 15.6173Z" fill="#FFCC00"/>
        <path d="M17.1464 15.6332L16.0825 16.597L15.8148 15.9811L17.1464 15.6332Z" fill="#FFCC00"/>
        <path d="M16.6819 17.4193L16.3115 15.8718L15.7391 16.2425L16.6819 17.4193Z" fill="#FFCC00"/>
        <path d="M16.6868 17.413L15.7104 16.4604L16.1481 15.8397L16.6868 17.413Z" fill="#FFCC00"/>
        <path d="M14.8608 15.6173L16.1074 15.7748L16.0707 16.5027L14.8608 15.6173Z" fill="#FFCC00"/>
        <path d="M14.8545 15.6332L15.9184 16.597L16.1862 15.9811L14.8545 15.6332Z" fill="#FFCC00"/>
        <path d="M15.3191 17.4193L15.6895 15.8718L16.2618 16.2425L15.3191 17.4193Z" fill="#FFCC00"/>
        <path d="M15.3142 17.413L16.2906 16.4604L15.8529 15.8397L15.3142 17.413Z" fill="#FFCC00"/>
        <path d="M16.0001 14.5731L15.6445 16.1533L16.2371 16.3114L16.0001 14.5731Z" fill="#FFCC00"/>
        <path d="M15.9999 14.5731L16.3555 16.1533L15.7629 16.3114L15.9999 14.5731Z" fill="#FFCC00"/>
        <path d="M17.1402 15.6173L15.8936 15.7748L15.9303 16.5027L17.1402 15.6173Z" fill="#FFCC00"/>
        <path d="M17.1464 15.6332L16.0825 16.597L15.8148 15.9811L17.1464 15.6332Z" fill="#FFCC00"/>
        <path d="M16.6819 17.4193L16.3115 15.8718L15.7391 16.2425L16.6819 17.4193Z" fill="#FFCC00"/>
        <path d="M16.6868 17.413L15.7104 16.4604L16.1481 15.8397L16.6868 17.413Z" fill="#FFCC00"/>
        <path d="M14.8608 15.6173L16.1074 15.7748L16.0707 16.5027L14.8608 15.6173Z" fill="#FFCC00"/>
        <path d="M14.8545 15.6332L15.9184 16.597L16.1862 15.9811L14.8545 15.6332Z" fill="#FFCC00"/>
        <path d="M15.3191 17.4193L15.6895 15.8718L16.2618 16.2425L15.3191 17.4193Z" fill="#FFCC00"/>
        <path d="M15.3142 17.413L16.2906 16.4604L15.8529 15.8397L15.3142 17.413Z" fill="#FFCC00"/>
        <path d="M16.0001 14.5731L15.6445 16.1533L16.2371 16.3114L16.0001 14.5731Z" fill="#FFCC00"/>
        <path d="M15.9999 14.5731L16.3555 16.1533L15.7629 16.3114L15.9999 14.5731Z" fill="#FFCC00"/>
        <path d="M17.1402 15.6173L15.8936 15.7748L15.9303 16.5027L17.1402 15.6173Z" fill="#FFCC00"/>
        <path d="M17.1464 15.6332L16.0825 16.597L15.8148 15.9811L17.1464 15.6332Z" fill="#FFCC00"/>
        <path d="M16.6819 17.4193L16.3115 15.8718L15.7391 16.2425L16.6819 17.4193Z" fill="#FFCC00"/>
        <path d="M16.6868 17.413L15.7104 16.4604L16.1481 15.8397L16.6868 17.413Z" fill="#FFCC00"/>
        <path d="M14.8608 15.6173L16.1074 15.7748L16.0707 16.5027L14.8608 15.6173Z" fill="#FFCC00"/>
        <path d="M14.8545 15.6332L15.9184 16.597L16.1862 15.9811L14.8545 15.6332Z" fill="#FFCC00"/>
        <path d="M15.3191 17.4193L15.6895 15.8718L16.2618 16.2425L15.3191 17.4193Z" fill="#FFCC00"/>
        <path d="M15.3142 17.413L16.2906 16.4604L15.8529 15.8397L15.3142 17.413Z" fill="#FFCC00"/>
        <path d="M11.8462 9.27257L12.8222 8.3221L12.3832 7.70012L11.8462 9.27257Z" fill="#FFCC00"/>
        <path d="M11.8516 9.2791L12.2201 7.7321L12.7936 8.10434L11.8516 9.2791Z" fill="#FFCC00"/>
        <path d="M11.3929 7.51156L12.4401 8.46146L12.7179 7.79663L11.3929 7.51156Z" fill="#FFCC00"/>
        <path d="M11.3966 7.50464L12.6398 7.59437L12.591 8.36316L11.3966 7.50464Z" fill="#FFCC00"/>
        <path d="M12.5068 6.45715L12.2153 7.97785L12.7694 8.17174L12.5068 6.45715Z" fill="#FFCC00"/>
        <path d="M12.5151 6.44926L12.8838 8.01731L12.3375 8.13229L12.5151 6.44926Z" fill="#FFCC00"/>
        <path d="M13.238 9.31016L12.2468 8.26514L12.6321 7.70012L13.238 9.31016Z" fill="#FFCC00"/>
        <path d="M13.2424 9.30416L12.7995 7.7378L12.2709 8.04168L13.2424 9.30416Z" fill="#FFCC00"/>
        <path d="M13.6525 7.53981L12.6532 8.46787L12.3465 7.72595L13.6525 7.53981Z" fill="#FFCC00"/>
        <path d="M13.6546 7.54701L12.4213 7.5301L12.5047 8.36313L13.6546 7.54701Z" fill="#FFCC00"/>
        <path d="M10.5762 12.7943L10.2076 11.2473L9.63417 11.6195L10.5762 12.7943Z" fill="#FFCC00"/>
        <path d="M10.5815 12.7878L9.60554 11.8373L10.0445 11.2153L10.5815 12.7878Z" fill="#FFCC00"/>
        <path d="M9.18969 12.8254L10.1809 11.7803L9.79567 11.2153L9.18969 12.8254Z" fill="#FFCC00"/>
        <path d="M9.18531 12.8194L9.62819 11.253L10.1568 11.5569L9.18531 12.8194Z" fill="#FFCC00"/>
        <path d="M8.77523 11.055L9.77454 11.9831L10.0812 11.2411L8.77523 11.055Z" fill="#FFCC00"/>
        <path d="M8.77311 11.0622L10.0065 11.0453L9.92307 11.8783L8.77311 11.0622Z" fill="#FFCC00"/>
        <path d="M11.0348 11.0268L9.98762 11.9767L9.7098 11.3118L11.0348 11.0268Z" fill="#FFCC00"/>
        <path d="M11.0311 11.0198L9.78792 11.1096L9.83671 11.8784L11.0311 11.0198Z" fill="#FFCC00"/>
        <path d="M9.92089 9.97234L10.2124 11.493L9.65838 11.6869L9.92089 9.97234Z" fill="#FFCC00"/>
        <path d="M9.91261 9.96445L9.54394 11.5325L10.0902 11.6475L9.91261 9.96445Z" fill="#FFCC00"/>
        <path d="M11.0398 20.4802L9.79035 20.6802L9.81687 21.3826L11.0398 20.4802Z" fill="#FFCC00"/>
        <path d="M11.0481 20.5018L9.97004 21.4742L9.71077 20.8891L11.0481 20.5018Z" fill="#FFCC00"/>
        <path d="M10.5616 22.2685L10.2321 20.7447L9.63514 21.1988L10.5616 22.2685Z" fill="#FFCC00"/>
        <path d="M10.5722 22.247L9.60419 21.4097L10.0714 20.7196L10.5722 22.247Z" fill="#FFCC00"/>
        <path d="M9.19225 22.3558L10.1825 21.2448L9.79393 20.7196L9.19225 22.3558Z" fill="#FFCC00"/>
        <path d="M9.18861 22.3411L9.62686 20.7612L10.1583 21.0174L9.18861 22.3411Z" fill="#FFCC00"/>
        <path d="M9.91622 19.5288L10.2219 20.9182L9.65936 21.1912L9.91622 19.5288Z" fill="#FFCC00"/>
        <path d="M9.90995 19.5035L9.54418 21.0446L10.1007 21.0648L9.90995 19.5035Z" fill="#FFCC00"/>
        <path d="M8.76119 20.6057L10.0048 20.49L9.95737 21.3826L8.76119 20.6057Z" fill="#FFCC00"/>
        <path d="M8.75688 20.5854L9.80603 21.4933L10.0827 20.68L8.75688 20.5854Z" fill="#FFCC00"/>
        <path d="M13.6121 23.6609L12.3626 23.8609L12.3891 24.5632L13.6121 23.6609Z" fill="#FFCC00"/>
        <path d="M13.6203 23.6824L12.5423 24.6549L12.283 24.0698L13.6203 23.6824Z" fill="#FFCC00"/>
        <path d="M13.1339 25.4492L12.8044 23.9254L12.2074 24.3794L13.1339 25.4492Z" fill="#FFCC00"/>
        <path d="M13.1445 25.4276L12.1765 24.5904L12.6437 23.9002L13.1445 25.4276Z" fill="#FFCC00"/>
        <path d="M11.7645 25.5365L12.7548 24.4255L12.3662 23.9002L11.7645 25.5365Z" fill="#FFCC00"/>
        <path d="M11.7609 25.5218L12.1991 23.9419L12.7306 24.198L11.7609 25.5218Z" fill="#FFCC00"/>
        <path d="M12.4885 22.7094L12.7942 24.0989L12.2316 24.3718L12.4885 22.7094Z" fill="#FFCC00"/>
        <path d="M12.4822 22.6841L12.1164 24.2253L12.673 24.2454L12.4822 22.6841Z" fill="#FFCC00"/>
        <path d="M11.3335 23.7864L12.577 23.6707L12.5296 24.5632L11.3335 23.7864Z" fill="#FFCC00"/>
        <path d="M11.3291 23.7661L12.3783 24.6739L12.655 23.8606L11.3291 23.7661Z" fill="#FFCC00"/>
        <path d="M16.0004 14.5731L16.356 16.1533L15.7634 16.3114L16.0004 14.5731Z" fill="#FFCC00"/>
        <path d="M16.0006 14.5731L15.645 16.1533L16.2376 16.3114L16.0006 14.5731Z" fill="#FFCC00"/>
        <path d="M14.8603 15.6173L16.1069 15.7748L16.0702 16.5027L14.8603 15.6173Z" fill="#FFCC00"/>
        <path d="M14.854 15.6332L15.9179 16.597L16.1857 15.9811L14.854 15.6332Z" fill="#FFCC00"/>
        <path d="M15.3186 17.4193L15.689 15.8718L16.2613 16.2425L15.3186 17.4193Z" fill="#FFCC00"/>
        <path d="M15.3137 17.413L16.2901 16.4604L15.8524 15.8397L15.3137 17.413Z" fill="#FFCC00"/>
        <path d="M17.1397 15.6173L15.8931 15.7748L15.9298 16.5027L17.1397 15.6173Z" fill="#FFCC00"/>
        <path d="M17.146 15.6332L16.0821 16.597L15.8143 15.9811L17.146 15.6332Z" fill="#FFCC00"/>
        <path d="M16.6814 17.4193L16.311 15.8718L15.7387 16.2425L16.6814 17.4193Z" fill="#FFCC00"/>
        <path d="M16.6863 17.413L15.7099 16.4604L16.1476 15.8397L16.6863 17.413Z" fill="#FFCC00"/>
        <path d="M20.1543 9.27257L19.1783 8.3221L19.6173 7.70012L20.1543 9.27257Z" fill="#FFCC00"/>
        <path d="M20.1489 9.2791L19.7803 7.7321L19.2069 8.10434L20.1489 9.2791Z" fill="#FFCC00"/>
        <path d="M20.6076 7.51156L19.5604 8.46146L19.2825 7.79663L20.6076 7.51156Z" fill="#FFCC00"/>
        <path d="M20.6038 7.50464L19.3607 7.59437L19.4095 8.36316L20.6038 7.50464Z" fill="#FFCC00"/>
        <path d="M19.4936 6.45715L19.7851 7.97785L19.2311 8.17174L19.4936 6.45715Z" fill="#FFCC00"/>
        <path d="M19.4854 6.44926L19.1167 8.01731L19.663 8.13229L19.4854 6.44926Z" fill="#FFCC00"/>
        <path d="M18.7624 9.31016L19.7537 8.26514L19.3684 7.70012L18.7624 9.31016Z" fill="#FFCC00"/>
        <path d="M18.7581 9.30416L19.2009 7.7378L19.7296 8.04168L18.7581 9.30416Z" fill="#FFCC00"/>
        <path d="M18.348 7.53981L19.3473 8.46787L19.654 7.72595L18.348 7.53981Z" fill="#FFCC00"/>
        <path d="M18.3459 7.54701L19.5792 7.5301L19.4958 8.36313L18.3459 7.54701Z" fill="#FFCC00"/>
        <path d="M21.4243 12.7943L21.7929 11.2473L22.3663 11.6195L21.4243 12.7943Z" fill="#FFCC00"/>
        <path d="M21.4189 12.7878L22.3949 11.8373L21.956 11.2153L21.4189 12.7878Z" fill="#FFCC00"/>
        <path d="M22.8108 12.8254L21.8196 11.7803L22.2048 11.2153L22.8108 12.8254Z" fill="#FFCC00"/>
        <path d="M22.8152 12.8194L22.3723 11.253L21.8436 11.5569L22.8152 12.8194Z" fill="#FFCC00"/>
        <path d="M23.2253 11.055L22.2259 11.9831L21.9193 11.2411L23.2253 11.055Z" fill="#FFCC00"/>
        <path d="M23.2274 11.0622L21.994 11.0453L22.0774 11.8783L23.2274 11.0622Z" fill="#FFCC00"/>
        <path d="M20.9657 11.0268L22.0129 11.9767L22.2907 11.3118L20.9657 11.0268Z" fill="#FFCC00"/>
        <path d="M20.9694 11.0198L22.2126 11.1096L22.1638 11.8784L20.9694 11.0198Z" fill="#FFCC00"/>
        <path d="M22.0796 9.97234L21.7881 11.493L22.3421 11.6869L22.0796 9.97234Z" fill="#FFCC00"/>
        <path d="M22.0879 9.96445L22.4566 11.5325L21.9103 11.6475L22.0879 9.96445Z" fill="#FFCC00"/>
        <path d="M20.9607 20.4802L22.2101 20.6802L22.1836 21.3826L20.9607 20.4802Z" fill="#FFCC00"/>
        <path d="M20.9524 20.5018L22.0304 21.4742L22.2897 20.8891L20.9524 20.5018Z" fill="#FFCC00"/>
        <path d="M21.4389 22.2685L21.7684 20.7447L22.3653 21.1988L21.4389 22.2685Z" fill="#FFCC00"/>
        <path d="M21.4283 22.247L22.3963 21.4097L21.9291 20.7195L21.4283 22.247Z" fill="#FFCC00"/>
        <path d="M22.8082 22.3558L21.818 21.2448L22.2066 20.7196L22.8082 22.3558Z" fill="#FFCC00"/>
        <path d="M22.8119 22.3411L22.3736 20.7612L21.8422 21.0174L22.8119 22.3411Z" fill="#FFCC00"/>
        <path d="M22.0843 19.5288L21.7786 20.9182L22.3411 21.1912L22.0843 19.5288Z" fill="#FFCC00"/>
        <path d="M22.0905 19.5035L22.4563 21.0446L21.8998 21.0648L22.0905 19.5035Z" fill="#FFCC00"/>
        <path d="M23.2393 20.6057L21.9957 20.49L22.0431 21.3826L23.2393 20.6057Z" fill="#FFCC00"/>
        <path d="M23.2436 20.5854L22.1945 21.4933L21.9178 20.68L23.2436 20.5854Z" fill="#FFCC00"/>
        <path d="M18.3884 23.6609L19.6379 23.8609L19.6114 24.5632L18.3884 23.6609Z" fill="#FFCC00"/>
        <path d="M18.3802 23.6824L19.4582 24.6549L19.7175 24.0698L18.3802 23.6824Z" fill="#FFCC00"/>
        <path d="M18.8666 25.4492L19.1961 23.9254L19.7931 24.3794L18.8666 25.4492Z" fill="#FFCC00"/>
        <path d="M18.856 25.4276L19.824 24.5904L19.3568 23.9002L18.856 25.4276Z" fill="#FFCC00"/>
        <path d="M20.236 25.5365L19.2457 24.4255L19.6343 23.9002L20.236 25.5365Z" fill="#FFCC00"/>
        <path d="M20.2396 25.5218L19.8014 23.9419L19.2699 24.198L20.2396 25.5218Z" fill="#FFCC00"/>
        <path d="M19.512 22.7094L19.2063 24.0989L19.7689 24.3718L19.512 22.7094Z" fill="#FFCC00"/>
        <path d="M19.5183 22.6841L19.884 24.2253L19.3275 24.2454L19.5183 22.6841Z" fill="#FFCC00"/>
        <path d="M20.667 23.7864L19.4235 23.6707L19.4709 24.5632L20.667 23.7864Z" fill="#FFCC00"/>
        <path d="M20.6713 23.7661L19.6222 24.6739L19.3455 23.8606L20.6713 23.7661Z" fill="#FFCC00"/>
        </g>
        <defs>
        <clipPath id="clip0_9652_475">
        <rect width="32" height="32" rx="16" fill="white"/>
        </clipPath>
        </defs>
        </svg>