<svg width="14" height="14" viewBox="0 0 14 14" fill="none" xmlns="http://www.w3.org/2000/svg">
<path d="M1.09049 1.72252L5.60835 7.86142C5.6759 7.95193 5.71344 8.06767 5.71416 8.18768V11.9165C5.71372 11.9688 5.72745 12.0198 5.75338 12.0624C5.77931 12.105 5.81612 12.137 5.85855 12.1537L8.00563 12.9872C8.03772 12.9997 8.07191 13.0031 8.10536 12.9971C8.13881 12.9912 8.17055 12.976 8.19795 12.9528C8.22536 12.9296 8.24762 12.8992 8.26291 12.8639C8.27819 12.8287 8.28606 12.7898 8.28584 12.7503V8.18768C8.28693 8.06747 8.32495 7.9517 8.39299 7.86142L12.9095 1.72252C12.9562 1.65906 12.9864 1.5813 12.9963 1.49847C13.0063 1.41564 12.9958 1.33121 12.9659 1.25517C12.936 1.17914 12.8881 1.11469 12.8277 1.06946C12.7674 1.02424 12.6973 1.00013 12.6256 1H1.37579C1.30397 0.999833 1.23363 1.02372 1.17311 1.06883C1.11259 1.11394 1.06445 1.17837 1.0344 1.25446C1.00436 1.33056 0.993669 1.41511 1.00361 1.49809C1.01356 1.58106 1.04371 1.65895 1.09049 1.72252Z" stroke="#6F7269" stroke-linecap="round" stroke-linejoin="round"/>
</svg>
