<svg width="14" height="14" viewBox="0 0 14 14" fill="none" xmlns="http://www.w3.org/2000/svg">
<path id="Vector" d="M0.598035 1.28273L5.49237 7.9332C5.56556 8.03126 5.60622 8.15664 5.60701 8.28665V12.3262C5.60653 12.3828 5.6214 12.4382 5.6495 12.4843C5.67759 12.5305 5.71746 12.5651 5.76343 12.5832L8.08944 13.4861C8.1242 13.4997 8.16124 13.5034 8.19747 13.4969C8.23371 13.4904 8.2681 13.474 8.29778 13.4489C8.32747 13.4238 8.35159 13.3908 8.36815 13.3526C8.38471 13.3145 8.39323 13.2722 8.39299 13.2295V8.28665C8.39418 8.15642 8.43537 8.03101 8.50908 7.9332L13.402 1.28273C13.4526 1.21398 13.4852 1.12974 13.496 1.04001C13.5069 0.95028 13.4954 0.858809 13.463 0.776437C13.4307 0.694065 13.3787 0.624246 13.3134 0.575252C13.248 0.526258 13.172 0.500143 13.0943 0.500001H0.907105C0.829305 0.499819 0.753096 0.5257 0.687535 0.574567C0.621975 0.623434 0.56982 0.693233 0.537269 0.775668C0.504719 0.858103 0.493142 0.949707 0.503913 1.03959C0.514685 1.12948 0.547353 1.21387 0.598035 1.28273Z" stroke="#151E00" stroke-linecap="round" stroke-linejoin="round"/>
</svg>
