<svg width="12" height="8" viewBox="0 0 12 8" fill="none" xmlns="http://www.w3.org/2000/svg">
<path d="M11.4271 3.68344C10.2312 1.23313 8.42342 0 6 0C3.57532 0 1.76879 1.23313 0.572848 3.68466C0.524878 3.78346 0.5 3.89136 0.5 4.00061C0.5 4.10987 0.524878 4.21777 0.572848 4.31656C1.76879 6.76687 3.57658 8 6 8C8.42468 8 10.2312 6.76687 11.4271 4.31534C11.5243 4.11656 11.5243 3.88589 11.4271 3.68344ZM6 7.11656C3.96513 7.11656 2.47525 6.11288 1.42439 4C2.47525 1.88712 3.96513 0.883436 6 0.883436C8.03486 0.883436 9.52474 1.88712 10.5756 4C9.526 6.11288 8.03612 7.11656 6 7.11656ZM5.94953 1.84049C4.72332 1.84049 3.72922 2.80736 3.72922 4C3.72922 5.19264 4.72332 6.15951 5.94953 6.15951C7.17575 6.15951 8.16985 5.19264 8.16985 4C8.16985 2.80736 7.17575 1.84049 5.94953 1.84049ZM5.94953 5.37423C5.16864 5.37423 4.53661 4.75951 4.53661 4C4.53661 3.24049 5.16864 2.62577 5.94953 2.62577C6.73043 2.62577 7.36246 3.24049 7.36246 4C7.36246 4.75951 6.73043 5.37423 5.94953 5.37423Z" fill="white"/>
</svg>
