<svg width="14" height="14" viewBox="0 0 14 14" fill="none" xmlns="http://www.w3.org/2000/svg">
<path d="M6.14286 1H2.71429C2.25963 1 1.82359 1.18061 1.5021 1.5021C1.18061 1.82359 1 2.25963 1 2.71429V11.2857C1 11.7404 1.18061 12.1764 1.5021 12.4979C1.82359 12.8194 2.25963 13 2.71429 13H11.2857C11.7404 13 12.1764 12.8194 12.4979 12.4979C12.8194 12.1764 13 11.7404 13 11.2857V2.71429" stroke="#17D05B" stroke-width="1.5" stroke-linecap="round" stroke-linejoin="round"/>
<path d="M9.57157 7L7.00014 9.57143L4.42871 7" stroke="#17D05B" stroke-linecap="round" stroke-linejoin="round"/>
<path d="M13 1H9.57143C8.88944 1 8.23539 1.27092 7.75315 1.75315C7.27092 2.23539 7 2.88944 7 3.57143V9.57143" stroke="#17D05B" stroke-linecap="round" stroke-linejoin="round"/>
</svg>
