
<svg width="32" height="32" viewBox="0 0 32 32" fill="none" xmlns="http://www.w3.org/2000/svg">
<g clip-path="url(#clip0_9652_410)">
<path d="M0 0H32V32H0V0Z" fill="white"/>
<path d="M0 0H32V9.6H0V0Z" fill="black"/>
<path d="M0 22.4H32V32H0V22.4Z" fill="#006600"/>
<path d="M11.71 25.5L11.98 25.7L18.985 9.49999C19.39 9.37999 19.615 8.85999 19.84 8.33999C19.99 7.97999 20.59 6.59999 20.845 4.79999C20.1333 5.64317 19.5303 6.63637 19.06 7.73999C18.835 8.25999 18.61 8.77999 18.715 9.31999L11.71 25.5Z" fill="black" stroke="black" stroke-width="0.375" stroke-miterlimit="10"/>
<path d="M11.71 25.5L11.98 25.7L18.985 9.49999C19.39 9.37999 19.615 8.85999 19.84 8.33999C19.99 7.97999 20.59 6.59999 20.845 4.79999C20.1333 5.64317 19.5303 6.63637 19.06 7.73999C18.835 8.25999 18.61 8.77999 18.715 9.31999L11.71 25.5Z" fill="white"/>
<path d="M20.29 25.5L20.02 25.7L13.015 9.49999C12.61 9.37999 12.385 8.85999 12.16 8.33999C12.01 7.97999 11.41 6.59999 11.155 4.79999C11.8667 5.64317 12.4697 6.63637 12.94 7.73999C13.165 8.25999 13.39 8.77999 13.285 9.31999L20.29 25.5Z" fill="black" stroke="black" stroke-width="0.375" stroke-miterlimit="10"/>
<path d="M20.29 25.5L20.02 25.7L13.015 9.49999C12.61 9.37999 12.385 8.85999 12.16 8.33999C12.01 7.97999 11.41 6.59999 11.155 4.79999C11.8667 5.64317 12.4697 6.63637 12.94 7.73999C13.165 8.25999 13.39 8.77999 13.285 9.31999L20.29 25.5Z" fill="white"/>
<path d="M32.0252 11.2H18.8502C18.4002 9.59999 16.9002 6.39999 16.0002 6.39999C15.1002 6.39999 13.6002 9.59999 13.1502 11.2H-0.00976562V20.8H13.1502C13.6002 22.4 15.1002 25.6 16.0002 25.6C16.9002 25.6 18.4002 22.4 18.8502 20.8H32.0252V11.2Z" fill="#BB0000"/>
<path d="M18.8501 20.8C19.3001 19.2 19.6001 17.6 19.6001 16C19.6001 14.4 19.3001 12.8 18.8501 11.2C18.4001 12.8 18.1001 14.4 18.1001 16C18.1001 17.6 18.4001 19.2 18.8501 20.8Z" fill="black"/>
<path d="M13.1499 20.8C12.6999 19.2 12.3999 17.6 12.3999 16C12.3999 14.4 12.6999 12.8 13.1499 11.2C13.5999 12.8 13.8999 14.4 13.8999 16C13.8999 17.6 13.5999 19.2 13.1499 20.8Z" fill="black"/>
<path d="M15.9999 17.2C16.3313 17.2 16.5999 16.6627 16.5999 16C16.5999 15.3372 16.3313 14.8 15.9999 14.8C15.6685 14.8 15.3999 15.3372 15.3999 16C15.3999 16.6627 15.6685 17.2 15.9999 17.2Z" fill="white"/>
<path d="M16.1499 17.16C16.1499 17.16 16.7499 18.76 16.7499 21.36C16.7499 23.96 16.1499 25.56 16.1499 25.56V17.16Z" fill="white"/>
<path d="M15.8501 14.84C15.8501 14.84 15.2501 13.24 15.2501 10.64C15.2501 8.04 15.8501 6.44 15.8501 6.44V14.84Z" fill="white"/>
<path d="M15.8501 17.16C15.8501 17.16 15.2501 18.76 15.2501 21.36C15.2501 23.96 15.8501 25.56 15.8501 25.56V17.16Z" fill="white"/>
<path d="M16.1499 14.84C16.1499 14.84 16.7499 13.24 16.7499 10.64C16.7499 8.04 16.1499 6.44 16.1499 6.44V14.84Z" fill="white"/>
</g>
<defs>
<clipPath id="clip0_9652_410">
<rect width="32" height="32" rx="16" fill="white"/>
</clipPath>
</defs>
</svg>
