<svg width="17" height="16" viewBox="0 0 17 16" fill="none" xmlns="http://www.w3.org/2000/svg">
<path d="M14.824 12.093H13.5429C13.4554 12.093 13.3734 12.1321 13.3187 12.2009C13.1912 12.3591 13.0545 12.5116 12.9105 12.6567C12.3217 13.2585 11.6243 13.738 10.8568 14.0688C10.0616 14.4117 9.20694 14.5876 8.34376 14.586C7.47086 14.586 6.62529 14.4112 5.83075 14.0688C5.06323 13.738 4.36578 13.2585 3.77697 12.6567C3.18711 12.0571 2.71677 11.3463 2.392 10.5637C2.05486 9.75257 1.88538 8.89118 1.88538 8.00001C1.88538 7.10885 2.05668 6.24746 2.392 5.4363C2.71637 4.65304 3.18289 3.94793 3.77697 3.34328C4.37106 2.73863 5.06172 2.26235 5.83075 1.93119C6.62529 1.58886 7.47086 1.41398 8.34376 1.41398C9.21666 1.41398 10.0622 1.587 10.8568 1.93119C11.6258 2.26235 12.3165 2.73863 12.9105 3.34328C13.0545 3.49025 13.1894 3.64281 13.3187 3.79909C13.3734 3.86793 13.4572 3.907 13.5429 3.907H14.824C14.9388 3.907 15.0099 3.77677 14.9461 3.67816C13.5484 1.46049 11.1028 -0.00741368 8.32371 2.81649e-05C3.95739 0.0111909 0.456669 3.62979 0.500405 8.08187C0.544142 12.4633 4.03939 16 8.34376 16C11.1155 16 13.5502 14.534 14.9461 12.3219C15.0081 12.2233 14.9388 12.093 14.824 12.093ZM16.4441 7.8828L13.8582 5.79909C13.7616 5.72095 13.6213 5.79165 13.6213 5.9163V7.33025L7.89911 7.33025C7.81893 7.33025 7.75332 7.39722 7.75332 7.47908L7.75332 8.52094C7.75332 8.6028 7.81893 8.66978 7.89911 8.66978H13.6213V10.0837C13.6213 10.2084 13.7634 10.2791 13.8582 10.2009L16.4441 8.11722C16.4615 8.1033 16.4756 8.08551 16.4853 8.0652C16.495 8.0449 16.5 8.0226 16.5 8.00001C16.5 7.97742 16.495 7.95513 16.4853 7.93482C16.4756 7.91452 16.4615 7.89673 16.4441 7.8828Z" fill="#003A49"/>
</svg>
