<svg
    width="40"
    height="24"
    viewBox="0 0 40 24"
    fill="none"
    xmlns="http://www.w3.org/2000/svg"
  >
    <path
      d="M14.5918 2.56689H25.4072V21.4335H14.5918V2.56689Z"
      fill="#FF5F00"
    />
    <path
      d="M15.279 12C15.279 8.16672 17.133 4.76666 19.9827 2.5666C17.8885 0.966633 15.2448 0 12.3607 0C5.52781 0 0 5.36659 0 12C0 18.6333 5.52781 24 12.3605 24C15.2446 24 17.8883 23.0334 19.9827 21.4332C17.133 19.2666 15.279 15.8333 15.279 12Z"
      fill="#EB001B"
    />
    <path
      d="M40.0003 12C40.0003 18.6333 34.4725 24 27.6398 24C24.7557 24 22.112 23.0334 20.0176 21.4332C22.9017 19.2333 24.7214 15.8333 24.7214 12C24.7214 8.16672 22.8673 4.76666 20.0176 2.5666C22.1118 0.966633 24.7557 0 27.6398 0C34.4725 0 40.0003 5.39999 40.0003 12Z"
      fill="#F79E1B"
    />
  </svg>