<svg width="25" height="16" viewBox="0 0 25 16" fill="none" xmlns="http://www.w3.org/2000/svg">
<g id="Master card">
<path id="Vector" d="M9.18512 2.10425H15.6743V13.8959H9.18512V2.10425Z" fill="#FF5F00"/>
<path id="Vector_2" d="M9.59746 8C9.59746 5.6042 10.7099 3.47916 12.4197 2.10413C11.1631 1.10415 9.57691 0.5 7.84645 0.5C3.74674 0.5 0.430054 3.85412 0.430054 8C0.430054 12.1458 3.74674 15.5 7.84635 15.5C9.57682 15.5 11.163 14.8959 12.4197 13.8958C10.7099 12.5416 9.59746 10.3958 9.59746 8Z" fill="#F30039"/>
<path id="Vector_3" d="M24.4302 8C24.4302 12.1458 21.1136 15.5 17.0139 15.5C15.2835 15.5 13.6973 14.8959 12.4406 13.8958C14.1711 12.5208 15.2629 10.3958 15.2629 8C15.2629 5.6042 14.1504 3.47916 12.4406 2.10413C13.6972 1.10415 15.2835 0.5 17.0139 0.5C21.1136 0.5 24.4302 3.875 24.4302 8Z" fill="#FFBD66"/>
</g>
</svg>
