<svg width="6" height="20" viewBox="0 0 6 20" fill="none" xmlns="http://www.w3.org/2000/svg">
<path d="M3 5.5C4.38071 5.5 5.5 4.38071 5.5 3C5.5 1.61929 4.38071 0.5 3 0.5C1.61929 0.5 0.5 1.61929 0.5 3C0.5 4.38071 1.61929 5.5 3 5.5Z" fill="#151E00"/>
<path d="M3 12.5C4.38071 12.5 5.5 11.3807 5.5 10C5.5 8.61929 4.38071 7.5 3 7.5C1.61929 7.5 0.5 8.61929 0.5 10C0.5 11.3807 1.61929 12.5 3 12.5Z" fill="#151E00"/>
<path d="M3 19.5C4.38071 19.5 5.5 18.3807 5.5 17C5.5 15.6193 4.38071 14.5 3 14.5C1.61929 14.5 0.5 15.6193 0.5 17C0.5 18.3807 1.61929 19.5 3 19.5Z" fill="#151E00"/>
</svg>
