<svg width="24" height="16" viewBox="0 0 24 16" fill="none" xmlns="http://www.w3.org/2000/svg">
<path d="M8.75488 2.10425H15.2441V13.8959H8.75488V2.10425Z" fill="#FF5F00"/>
<path d="M9.16741 8C9.16741 5.6042 10.2798 3.47916 11.9896 2.10413C10.7331 1.10415 9.14686 0.5 7.4164 0.5C3.31669 0.5 0 3.85412 0 8C0 12.1458 3.31669 15.5 7.4163 15.5C9.14676 15.5 10.733 14.8959 11.9896 13.8958C10.2798 12.5416 9.16741 10.3958 9.16741 8Z" fill="#F30039"/>
<path d="M24.0004 8C24.0004 12.1458 20.6837 15.5 16.5841 15.5C14.8536 15.5 13.2674 14.8959 12.0107 13.8958C13.7412 12.5208 14.8331 10.3958 14.8331 8C14.8331 5.6042 13.7206 3.47916 12.0107 2.10413C13.2673 1.10415 14.8536 0.5 16.5841 0.5C20.6837 0.5 24.0004 3.875 24.0004 8Z" fill="#FFBD66"/>
</svg>
