<svg width="16" height="16" viewBox="0 0 16 16" fill="none" xmlns="http://www.w3.org/2000/svg">
<g id="Notification">
<path id="Notification_2" d="M12.642 10.3401V6.75556C12.2469 6.82449 11.8519 6.89342 11.4568 6.89342H11.0617V11.0295H3.16049V6.20408C3.16049 4.27392 4.89877 2.75737 7.11111 2.75737C7.19012 1.86122 7.6642 1.10295 8.2963 0.48254C8.05926 0.206803 7.58519 0 7.11111 0C6.24198 0 5.53086 0.620408 5.53086 1.37868V1.58549C3.16049 2.2059 1.58025 4.06712 1.58025 6.20408V10.3401L0 11.7188V12.4082H14.2222V11.7188L12.642 10.3401ZM5.53086 13.0975C5.53086 13.8558 6.24198 14.4762 7.11111 14.4762C7.98025 14.4762 8.69136 13.8558 8.69136 13.0975H5.53086ZM14.2222 3.10204C14.2222 4.41179 12.958 5.51474 11.4568 5.51474C9.95556 5.51474 8.69136 4.41179 8.69136 3.10204C8.69136 1.79229 9.95556 0.689342 11.4568 0.689342C12.958 0.689342 14.2222 1.79229 14.2222 3.10204Z" fill="#7C848C"/>
</g>
</svg>
