<svg width="40" height="40" viewBox="0 0 40 40" fill="none" xmlns="http://www.w3.org/2000/svg">
<rect width="40" height="40" rx="20" fill="#ECECED"/>
<path fill-rule="evenodd" clip-rule="evenodd" d="M20 10.2222C19.7452 10.2221 19.4933 10.2769 19.2615 10.3827C19.0297 10.4885 18.8234 10.6429 18.6565 10.8354C18.4896 11.028 18.366 11.2542 18.2941 11.4986C18.2223 11.7431 18.2038 12.0002 18.24 12.2524C16.9517 12.6328 15.8209 13.4197 15.0167 14.4957C14.2125 15.5716 13.7779 16.8789 13.7778 18.2222V25.3333H12.8889C12.6531 25.3333 12.427 25.4269 12.2603 25.5936C12.0937 25.7603 12 25.9864 12 26.2222C12 26.4579 12.0937 26.684 12.2603 26.8507C12.427 27.0174 12.6531 27.1111 12.8889 27.1111H27.1111C27.3469 27.1111 27.573 27.0174 27.7397 26.8507C27.9064 26.684 28 26.4579 28 26.2222C28 25.9864 27.9064 25.7603 27.7397 25.5936C27.573 25.4269 27.3469 25.3333 27.1111 25.3333H26.2222V18.2222C26.2221 16.8789 25.7875 15.5716 24.9833 14.4957C24.1791 13.4197 23.0483 12.6328 21.76 12.2524C21.7962 12.0002 21.7777 11.7431 21.7059 11.4986C21.634 11.2542 21.5104 11.028 21.3435 10.8354C21.1766 10.6429 20.9703 10.4885 20.7385 10.3827C20.5067 10.2769 20.2548 10.2221 20 10.2222ZM21.7778 28.8888C21.7778 29.1246 21.6841 29.3507 21.5174 29.5174C21.3507 29.6841 21.1246 29.7777 20.8889 29.7777H19.1111C18.8754 29.7777 18.6493 29.6841 18.4826 29.5174C18.3159 29.3507 18.2222 29.1246 18.2222 28.8888C18.2222 28.6531 18.3159 28.427 18.4826 28.2603C18.6493 28.0936 18.8754 27.9999 19.1111 27.9999H20.8889C21.1246 27.9999 21.3507 28.0936 21.5174 28.2603C21.6841 28.427 21.7778 28.6531 21.7778 28.8888Z" fill="#979992"/>
</svg>
