<svg width="31" height="28" viewBox="0 0 31 28" fill="none" xmlns="http://www.w3.org/2000/svg">
<rect width="31" height="28" rx="4" fill="#E6EDFA"/>
<path d="M7.66662 14.8333H8.99128C9.08292 14.8333 9.1579 14.7583 9.1579 14.6667V9.34792H20.1675V10.8604C20.1675 10.9 20.18 10.9375 20.205 10.9688C20.2191 10.9867 20.2365 11.0018 20.2564 11.013C20.2762 11.0242 20.2981 11.0314 20.3208 11.0341C20.3434 11.0368 20.3664 11.035 20.3884 11.0288C20.4103 11.0226 20.4308 11.0121 20.4487 10.9979L23.4334 8.65417C23.5229 8.55 23.5083 8.43959 23.4334 8.37917L20.4487 6.03751C20.418 6.01293 20.3797 5.99969 20.3404 6.00001C20.2446 6.00001 20.1655 6.07917 20.1655 6.17501V7.68751H8.99336C8.17066 7.68751 7.5 8.35834 7.5 9.18334V14.6667C7.5 14.7583 7.57498 14.8333 7.66662 14.8333ZM23.3292 13.1667H22.0046C21.9129 13.1667 21.8379 13.2417 21.8379 13.3333V18.6521H10.8283V17.1396C10.8283 17.1 10.8158 17.0625 10.7908 17.0313C10.7768 17.0133 10.7593 16.9982 10.7395 16.987C10.7196 16.9758 10.6977 16.9686 10.675 16.9659C10.6524 16.9632 10.6294 16.965 10.6075 16.9712C10.5855 16.9774 10.565 16.9879 10.5471 17.0021L7.56248 19.3458C7.47292 19.45 7.4875 19.5604 7.56248 19.6208L10.5471 21.9625C10.5784 21.9875 10.6159 22 10.6554 22C10.7512 22 10.8304 21.9208 10.8304 21.825V20.3125H22.0066C22.8293 20.3125 23.5 19.6417 23.5 18.8167V13.3333C23.4958 13.2417 23.4209 13.1667 23.3292 13.1667Z" fill="#4272DD"/>
</svg>
