<svg width="16" height="17" viewBox="0 0 16 17" fill="none" xmlns="http://www.w3.org/2000/svg">
<path d="M13.6229 1.48697C12.7487 0.642543 11.1684 0.280518 9.14673 0.280518H3.27929C3.07927 0.280524 2.88581 0.340999 2.73369 0.451071C2.58157 0.561142 2.48078 0.713589 2.44943 0.881005L0.00633987 14.0119C-0.0422208 14.2708 0.194371 14.5053 0.504056 14.5053H4.12641L5.03614 9.61534L5.0079 9.76847C5.07271 9.42282 5.42155 9.16788 5.83463 9.16788H7.55596C10.9375 9.16788 13.5853 8.00391 14.3588 4.63679C14.3818 4.5372 14.4016 4.44028 14.4188 4.34558C14.3212 4.30177 14.3212 4.30177 14.4188 4.34558C14.6491 3.10106 14.4173 2.25393 13.6229 1.48697Z" fill="#27346A"/>
<path d="M6.42219 3.89726C6.52122 3.8573 6.62953 3.83659 6.73921 3.83665H11.3392C11.8839 3.83665 12.392 3.86669 12.8562 3.93002C12.9861 3.94757 13.1154 3.96853 13.2438 3.99286C13.4257 4.02689 13.6056 4.06854 13.7827 4.11765C14.011 4.18225 14.2235 4.25748 14.4189 4.34558C14.6491 3.10058 14.4173 2.25393 13.6229 1.48697C12.7482 0.642543 11.1684 0.280518 9.14673 0.280518H3.27879C2.86565 0.280518 2.51418 0.535408 2.44943 0.881005L0.00634021 14.0114C-0.0422205 14.2708 0.194372 14.5049 0.503554 14.5049H4.12641L6.01381 4.36196C6.03237 4.26226 6.07924 4.16788 6.15037 4.08693C6.22151 4.00598 6.31479 3.94089 6.42219 3.89726Z" fill="#27346A"/>
<path d="M14.3592 4.63679C13.5857 8.00343 10.938 9.16787 7.55636 9.16787H5.83452C5.42144 9.16787 5.07255 9.42282 5.00836 9.76847L3.8766 15.8486C3.83431 16.0752 4.0411 16.2805 4.31164 16.2805H7.36519C7.54011 16.2805 7.70927 16.2275 7.84225 16.1313C7.97523 16.035 8.06331 15.9016 8.09065 15.7552L8.12039 15.6234L8.6959 12.5323L8.73298 12.3615C8.76031 12.2151 8.84839 12.0818 8.98136 11.9855C9.11433 11.8892 9.28347 11.8362 9.45838 11.8362H9.91538C12.8734 11.8362 15.1895 10.8178 15.8664 7.87247C16.1489 6.64162 16.0027 5.61397 15.2554 4.89216C15.0287 4.67353 14.7472 4.49296 14.4192 4.34558C14.4015 4.44075 14.3822 4.5372 14.3592 4.63679Z" fill="#2790C3"/>
<path d="M13.6088 4.07203C13.4882 4.04219 13.3664 4.01577 13.2437 3.99281C13.1153 3.96888 12.9861 3.94806 12.8562 3.93039C12.3914 3.86664 11.8837 3.83655 11.3385 3.83655H6.73912C6.62935 3.83634 6.52096 3.85723 6.4221 3.89764C6.31458 3.94114 6.22119 4.00619 6.15002 4.08716C6.07885 4.16813 6.03205 4.26258 6.01366 4.36233L5.03605 9.61529L5.00781 9.76842C5.07212 9.42277 5.42095 9.16783 5.8341 9.16783H7.55593C10.9375 9.16783 13.5852 8.00386 14.3587 4.63674C14.3817 4.53715 14.401 4.44065 14.4188 4.34553C14.2229 4.25791 14.0109 4.1822 13.7826 4.11802C13.725 4.10184 13.6671 4.08651 13.6088 4.07203" fill="#1F264F"/>
</svg>
