<svg width="15" height="14" viewBox="0 0 15 14" fill="none" xmlns="http://www.w3.org/2000/svg">
<g id="Plus">
<path id="Plus_2" d="M8.10999 0H6.88906C6.78053 0 6.72627 0.0518519 6.72627 0.155556V6.26111H0.662791C0.554264 6.26111 0.5 6.31296 0.5 6.41667V7.58333C0.5 7.68704 0.554264 7.73889 0.662791 7.73889H6.72627V13.8444C6.72627 13.9481 6.78053 14 6.88906 14H8.10999C8.21852 14 8.27278 13.9481 8.27278 13.8444V7.73889H14.3372C14.4457 7.73889 14.5 7.68704 14.5 7.58333V6.41667C14.5 6.31296 14.4457 6.26111 14.3372 6.26111H8.27278V0.155556C8.27278 0.0518519 8.21852 0 8.10999 0Z" fill="#4272DD"/>
</g>
</svg>
