<svg
    width="15"
    height="14"
    viewBox="0 0 15 14"
    fill="none"
    xmlns="http://www.w3.org/2000/svg"
  >
    <path
      d="M8.35999 0H7.13906C7.03053 0 6.97627 0.0518519 6.97627 0.155556V6.26111H0.912791C0.804264 6.26111 0.75 6.31296 0.75 6.41667V7.58333C0.75 7.68704 0.804264 7.73889 0.912791 7.73889H6.97627V13.8444C6.97627 13.9481 7.03053 14 7.13906 14H8.35999C8.46852 14 8.52278 13.9481 8.52278 13.8444V7.73889H14.5872C14.6957 7.73889 14.75 7.68704 14.75 7.58333V6.41667C14.75 6.31296 14.6957 6.26111 14.5872 6.26111H8.52278V0.155556C8.52278 0.0518519 8.46852 0 8.35999 0Z"
      fill="#6F7269"
    />
  </svg>