<svg width="15" height="16" viewBox="0 0 15 16" fill="none" xmlns="http://www.w3.org/2000/svg">
<g id="Read" clip-path="url(#clip0_444_3124)">
<path id="Vector" d="M14.4643 2.12598H10.6339C9.81194 2.12598 9.00837 2.36203 8.31696 2.80734L7.5 3.33133L6.68304 2.80734C5.99232 2.36211 5.18785 2.12554 4.36607 2.12598H0.535714C0.239397 2.12598 0 2.36537 0 2.66169V12.1706C0 12.4669 0.239397 12.7063 0.535714 12.7063H4.36607C5.18806 12.7063 5.99163 12.9424 6.68304 13.3877L7.42634 13.8665C7.4481 13.8799 7.47321 13.8883 7.49833 13.8883C7.52344 13.8883 7.54855 13.8816 7.57031 13.8665L8.31362 13.3877C9.0067 12.9424 9.81194 12.7063 10.6339 12.7063H14.4643C14.7606 12.7063 15 12.4669 15 12.1706V2.66169C15 2.36537 14.7606 2.12598 14.4643 2.12598ZM4.36607 11.501H1.20536V3.33133H4.36607C4.9587 3.33133 5.5346 3.50042 6.03181 3.82017L6.84877 4.34417L6.96429 4.4195V12.1539C6.16741 11.7253 5.27679 11.501 4.36607 11.501ZM13.7946 11.501H10.6339C9.72321 11.501 8.83259 11.7253 8.03571 12.1539V4.4195L8.15123 4.34417L8.96819 3.82017C9.4654 3.50042 10.0413 3.33133 10.6339 3.33133H13.7946V11.501ZM5.5731 5.47419H2.46261C2.39732 5.47419 2.34375 5.53111 2.34375 5.59975V6.3531C2.34375 6.42174 2.39732 6.47866 2.46261 6.47866H5.57143C5.63672 6.47866 5.69029 6.42174 5.69029 6.3531V5.59975C5.69196 5.53111 5.63839 5.47419 5.5731 5.47419ZM9.30804 5.59975V6.3531C9.30804 6.42174 9.36161 6.47866 9.4269 6.47866H12.5357C12.601 6.47866 12.6546 6.42174 12.6546 6.3531V5.59975C12.6546 5.53111 12.601 5.47419 12.5357 5.47419H9.4269C9.36161 5.47419 9.30804 5.53111 9.30804 5.59975ZM5.5731 7.81794H2.46261C2.39732 7.81794 2.34375 7.87486 2.34375 7.9435V8.69685C2.34375 8.76549 2.39732 8.82241 2.46261 8.82241H5.57143C5.63672 8.82241 5.69029 8.76549 5.69029 8.69685V7.9435C5.69196 7.87486 5.63839 7.81794 5.5731 7.81794ZM12.5374 7.81794H9.4269C9.36161 7.81794 9.30804 7.87486 9.30804 7.9435V8.69685C9.30804 8.76549 9.36161 8.82241 9.4269 8.82241H12.5357C12.601 8.82241 12.6546 8.76549 12.6546 8.69685V7.9435C12.6562 7.87486 12.6027 7.81794 12.5374 7.81794Z" fill="#696972"/>
</g>
<defs>
<clipPath id="clip0_444_3124">
<rect width="15" height="15" fill="white" transform="translate(0 0.5)"/>
</clipPath>
</defs>
</svg>
