<svg width="31" height="28" viewBox="0 0 31 28" fill="none" xmlns="http://www.w3.org/2000/svg">
<rect width="31" height="28" rx="4" fill="#E0FFEB"/>
<path d="M20.8464 10.7143C20.0285 7.95954 17.9446 6 15.5036 6C13.0625 6 10.9786 7.95726 10.1607 10.712C8.62326 11.2292 7.49112 13.0224 7.50005 15.1506C7.51077 17.5294 8.95718 19.4638 10.7786 19.6712C10.8625 19.6803 10.934 19.596 10.934 19.4889V18.1127C10.934 18.0215 10.8804 17.9441 10.809 17.9327C10.3268 17.8552 9.87146 17.5863 9.52146 17.1466C9.0929 16.6111 8.85718 15.8911 8.85718 15.1278C8.85718 14.4898 9.01968 13.8883 9.32504 13.387C9.62325 12.8994 10.0429 12.5462 10.5054 12.3913L11.1822 12.1634L11.4304 11.3272C11.5839 10.8077 11.7982 10.3201 12.0679 9.88034C12.3339 9.44286 12.65 9.06007 13.0036 8.74107C13.7375 8.08258 14.6018 7.73396 15.5036 7.73396C16.4053 7.73396 17.2696 8.08258 18.0035 8.74335C18.3589 9.06235 18.6732 9.44514 18.9392 9.88262C19.2089 10.3224 19.4232 10.81 19.5767 11.3295L19.8232 12.1634L20.4982 12.3913C21.466 12.7194 22.1428 13.8427 22.1428 15.1255C22.1428 15.8911 21.9071 16.6088 21.4785 17.1443C21.1303 17.5818 20.6767 17.8529 20.1946 17.9304C20.1232 17.9418 20.0714 18.0193 20.0714 18.1104V19.4889C20.0714 19.596 20.1446 19.6803 20.2285 19.6712C22.0446 19.4616 23.4874 17.5294 23.4999 15.1551C23.5106 13.027 22.3803 11.2338 20.8464 10.7143Z" fill="#17D05B"/>
<path d="M13.0876 17.2698C13.1198 16.5065 13.368 15.7956 13.793 15.251C14.2465 14.67 14.8644 14.3441 15.5072 14.3441C16.1537 14.3441 16.7626 14.6654 17.2215 15.251C17.2465 15.2829 17.2697 15.3148 17.2947 15.349L16.8483 15.7956C16.827 15.8166 16.8108 15.8448 16.8016 15.877C16.7923 15.9092 16.7904 15.9441 16.796 15.9777C16.8016 16.0112 16.8145 16.0421 16.8332 16.0667C16.852 16.0913 16.8758 16.1087 16.9019 16.1168L18.6554 16.6637C18.7447 16.691 18.8322 16.6044 18.8322 16.4882L18.8411 14.1801C18.8411 14.0274 18.7054 13.9408 18.6108 14.0365L18.1965 14.4512C17.5429 13.4942 16.5822 12.8882 15.509 12.8882C13.5912 12.8882 12.0269 14.8272 11.9483 17.2561C11.9448 17.3586 12.0091 17.4452 12.0912 17.4452H12.9466C13.0216 17.4429 13.0841 17.3677 13.0876 17.2698ZM18.9108 17.4429H18.0554C17.9804 17.4429 17.9179 17.5181 17.9126 17.6161C17.8804 18.3794 17.6322 19.0903 17.2072 19.6349C16.7537 20.2159 16.1358 20.5417 15.493 20.5417C14.8465 20.5417 14.2376 20.2205 13.7787 19.6349C13.7537 19.603 13.7305 19.5711 13.7055 19.5369L14.1519 19.0903C14.1732 19.0693 14.1894 19.0411 14.1986 19.0089C14.2079 18.9767 14.2098 18.9418 14.2042 18.9082C14.1986 18.8746 14.1857 18.8438 14.167 18.8192C14.1483 18.7945 14.1245 18.7772 14.0983 18.769L12.3448 18.2222C12.2555 18.1949 12.168 18.2814 12.168 18.3976L12.1608 20.7081C12.1608 20.8607 12.2966 20.9473 12.3912 20.8516L12.8055 20.4369C13.459 21.3939 14.4198 22 15.493 22C17.4108 22 18.9751 20.061 19.0536 17.6321C19.0572 17.5295 18.9929 17.4429 18.9108 17.4429Z" fill="#17D05B"/>
</svg>
