<svg width="36" height="36" viewBox="0 0 36 36" fill="none" xmlns="http://www.w3.org/2000/svg">
<rect width="36" height="36" fill="#F5F5F5"/>
<g id="Reset Password">
<rect x="-57.75" y="-925.75" width="1439.5" height="1023.5" fill="white"/>
<g id="Side nav simba portal 5- reset password confirmation">
<rect width="440" height="1024" transform="translate(-58 -926)" fill="#003A49"/>
<g id="Big frame ">
<g id="checkbox round-outlined icon ">
<g id="checkbox round-outlined icon _2">
<path id="Vector" d="M12.6667 18L16.2222 21.5556L23.3333 14.4444M34 18C34 20.1012 33.5861 22.1817 32.7821 24.1229C31.978 26.0641 30.7994 27.828 29.3137 29.3137C27.828 30.7994 26.0641 31.978 24.1229 32.7821C22.1817 33.5861 20.1012 34 18 34C15.8989 34 13.8183 33.5861 11.8771 32.7821C9.93586 31.978 8.17203 30.7994 6.68629 29.3137C5.20055 27.828 4.022 26.0641 3.21793 24.1229C2.41385 22.1817 2 20.1012 2 18C2 13.7565 3.68571 9.68687 6.68629 6.68629C9.68687 3.68571 13.7565 2 18 2C22.2435 2 26.3131 3.68571 29.3137 6.68629C32.3143 9.68687 34 13.7565 34 18Z" stroke="#84BD00" stroke-width="3" stroke-linecap="round" stroke-linejoin="round"/>
</g>
</g>
</g>
</g>
<rect x="-57.75" y="-925.75" width="1439.5" height="1023.5" stroke="#979992" stroke-width="0.5"/>
</g>
</svg>
