<svg width="32" height="32" viewBox="0 0 32 32" fill="none" xmlns="http://www.w3.org/2000/svg">
<rect width="32" height="32" rx="16" fill="#ECECED"/>
<path d="M13.8571 11.3333H12.4286C12.0497 11.3333 11.6863 11.4738 11.4184 11.7239C11.1505 11.9739 11 12.313 11 12.6667V20.6667C11 21.0203 11.1505 21.3594 11.4184 21.6095C11.6863 21.8595 12.0497 22 12.4286 22H19.5714C19.9503 22 20.3137 21.8595 20.5816 21.6095C20.8495 21.3594 21 21.0203 21 20.6667V12.6667C21 12.313 20.8495 11.9739 20.5816 11.7239C20.3137 11.4738 19.9503 11.3333 19.5714 11.3333H18.1429M13.8571 11.3333C13.8571 11.687 14.0077 12.0261 14.2756 12.2761C14.5435 12.5262 14.9068 12.6667 15.2857 12.6667H16.7143C17.0932 12.6667 17.4565 12.5262 17.7244 12.2761C17.9923 12.0261 18.1429 11.687 18.1429 11.3333M13.8571 11.3333C13.8571 10.9797 14.0077 10.6406 14.2756 10.3905C14.5435 10.1405 14.9068 10 15.2857 10H16.7143C17.0932 10 17.4565 10.1405 17.7244 10.3905C17.9923 10.6406 18.1429 10.9797 18.1429 11.3333M16 16H18.1429M16 18.6667H18.1429M13.8571 16H13.8643M13.8571 18.6667H13.8643" stroke="#6F7269" stroke-linecap="round" stroke-linejoin="round"/>
</svg>
