<svg width="32" height="32" viewBox="0 0 32 32" fill="none" xmlns="http://www.w3.org/2000/svg">
<g clip-path="url(#clip0_9652_446)">
<path d="M0 0H32V32H0V0Z" fill="#20603D"/>
<path d="M0 0H32V24H0V0Z" fill="#FAD201"/>
<path d="M0 0H32V16H0V0Z" fill="#00A1DE"/>
<path d="M29.4204 8.36L26.7404 8.56889L29.2871 9.69778L26.6604 8.97333L28.9038 10.9378L26.5038 9.32889L28.2838 12.0089L26.2804 9.63111L27.4871 12.8311L26.0104 9.84L26.5504 13.3378L25.7071 9.94667L25.5504 13.52L25.5171 8.31555L29.4204 8.36Z" fill="#E5BE01"/>
<path d="M29.4204 8.36L26.7404 8.15111L29.2871 7.02222L26.6604 7.74667L28.9038 5.78221L26.5038 7.39111L28.2838 4.7111L26.2804 7.08889L27.4871 3.88887L26.0104 6.88L26.5504 3.3822L25.7071 6.77333L25.5504 3.19998L25.5171 8.40445L29.4204 8.36Z" fill="#E5BE01"/>
<path d="M21.6801 8.36L24.3602 8.56889L21.8135 9.69778L24.4402 8.97333L22.1968 10.9378L24.5968 9.32889L22.8168 12.0089L24.8202 9.63111L23.6135 12.8311L25.0902 9.84L24.5502 13.3378L25.3935 9.94667L25.5502 13.52L25.5835 8.31555L21.6801 8.36Z" fill="#E5BE01"/>
<path d="M21.6801 8.36L24.3602 8.15111L21.8135 7.02222L24.4402 7.74667L22.1968 5.78221L24.5968 7.39111L22.8168 4.7111L24.8202 7.08889L23.6135 3.88887L25.0902 6.88L24.5502 3.3822L25.3935 6.77333L25.5502 3.19998L25.5835 8.40445L21.6801 8.36Z" fill="#E5BE01"/>
<path d="M25.5501 9.88444C26.1815 9.88444 26.6934 9.20192 26.6934 8.35999C26.6934 7.51806 26.1815 6.83554 25.5501 6.83554C24.9186 6.83554 24.4067 7.51806 24.4067 8.35999C24.4067 9.20192 24.9186 9.88444 25.5501 9.88444Z" fill="#E5BE01" stroke="#00A1DE" stroke-width="0.283335"/>
</g>
<defs>
<clipPath id="clip0_9652_446">
<rect width="32" height="32" rx="16" fill="white"/>
</clipPath>
</defs>
</svg>
