<svg width="21" height="22" viewBox="0 0 21 22" fill="none" xmlns="http://www.w3.org/2000/svg">
<rect y="0.5" width="21" height="21" rx="10.5" fill="#84BD00"/>
<path d="M12.4375 14.0234C12.4375 13.8203 12.4062 13.638 12.3438 13.4766C12.2865 13.3099 12.1771 13.1589 12.0156 13.0234C11.8542 12.8828 11.6276 12.7448 11.3359 12.6094C11.0443 12.474 10.6667 12.3333 10.2031 12.1875C9.6875 12.0208 9.19792 11.8333 8.73438 11.625C8.27604 11.4167 7.86979 11.1745 7.51562 10.8984C7.16667 10.6172 6.89062 10.2917 6.6875 9.92188C6.48958 9.55208 6.39062 9.1224 6.39062 8.63281C6.39062 8.15885 6.49479 7.72917 6.70312 7.34375C6.91146 6.95312 7.20312 6.61979 7.57812 6.34375C7.95312 6.0625 8.39583 5.84635 8.90625 5.69531C9.42188 5.54427 9.98698 5.46875 10.6016 5.46875C11.4401 5.46875 12.1719 5.61979 12.7969 5.92188C13.4219 6.22396 13.9062 6.63802 14.25 7.16406C14.599 7.6901 14.7734 8.29167 14.7734 8.96875H12.4453C12.4453 8.63542 12.375 8.34375 12.2344 8.09375C12.099 7.83854 11.8906 7.63802 11.6094 7.49219C11.3333 7.34635 10.9844 7.27344 10.5625 7.27344C10.1562 7.27344 9.81771 7.33594 9.54688 7.46094C9.27604 7.58073 9.07292 7.74479 8.9375 7.95312C8.80208 8.15625 8.73438 8.38542 8.73438 8.64062C8.73438 8.83333 8.78125 9.00781 8.875 9.16406C8.97396 9.32031 9.11979 9.46615 9.3125 9.60156C9.50521 9.73698 9.74219 9.86458 10.0234 9.98438C10.3047 10.1042 10.6302 10.2214 11 10.3359C11.6198 10.5234 12.1641 10.7344 12.6328 10.9688C13.1068 11.2031 13.5026 11.4661 13.8203 11.7578C14.138 12.0495 14.3776 12.3802 14.5391 12.75C14.7005 13.1198 14.7812 13.5391 14.7812 14.0078C14.7812 14.5026 14.6849 14.9453 14.4922 15.3359C14.2995 15.7266 14.0208 16.0573 13.6562 16.3281C13.2917 16.599 12.8568 16.8047 12.3516 16.9453C11.8464 17.0859 11.2812 17.1562 10.6562 17.1562C10.0938 17.1562 9.53906 17.0833 8.99219 16.9375C8.44531 16.7865 7.94792 16.5599 7.5 16.2578C7.05729 15.9557 6.70312 15.5703 6.4375 15.1016C6.17188 14.6328 6.03906 14.0781 6.03906 13.4375H8.39062C8.39062 13.7917 8.44531 14.0911 8.55469 14.3359C8.66406 14.5807 8.81771 14.7786 9.01562 14.9297C9.21875 15.0807 9.45833 15.1901 9.73438 15.2578C10.0156 15.3255 10.3229 15.3594 10.6562 15.3594C11.0625 15.3594 11.3958 15.3021 11.6562 15.1875C11.9219 15.0729 12.1172 14.9141 12.2422 14.7109C12.3724 14.5078 12.4375 14.2786 12.4375 14.0234Z" fill="white"/>
</svg>
