<svg width="17" height="16" viewBox="0 0 17 16" fill="none" xmlns="http://www.w3.org/2000/svg">
<path d="M13.1266 11.5128L16.5 14.8855L15.3855 16L12.0128 12.6266C10.7579 13.6325 9.19706 14.1797 7.58871 14.1774C3.67574 14.1774 0.5 11.0017 0.5 7.08871C0.5 3.17574 3.67574 0 7.58871 0C11.5017 0 14.6774 3.17574 14.6774 7.08871C14.6797 8.69706 14.1325 10.2579 13.1266 11.5128ZM11.5466 10.9284C12.5462 9.90047 13.1044 8.52254 13.1021 7.08871C13.1021 4.04214 10.6345 1.57527 7.58871 1.57527C4.54214 1.57527 2.07527 4.04214 2.07527 7.08871C2.07527 10.1345 4.54214 12.6021 7.58871 12.6021C9.02254 12.6044 10.4005 12.0462 11.4284 11.0466L11.5466 10.9284Z" fill="#979992"/>
</svg>
