<svg width="40" height="40" viewBox="0 0 40 40" fill="none" xmlns="http://www.w3.org/2000/svg">
<rect width="40" height="40" rx="20" fill="#ECECED"/>
<path d="M13.1667 22.2858H11.8333C11.6492 22.2858 11.5 22.4137 11.5 22.5715V27.7143C11.5 27.8721 11.6492 28.0001 11.8333 28.0001H13.1667C13.3508 28.0001 13.5 27.8721 13.5 27.7143V22.5715C13.5 22.4137 13.3508 22.2858 13.1667 22.2858Z" fill="#979992" stroke="#979992" stroke-linecap="round" stroke-linejoin="round"/>
<path d="M18.1667 12H16.8333C16.6492 12 16.5 12.1279 16.5 12.2857V27.7143C16.5 27.8721 16.6492 28 16.8333 28H18.1667C18.3508 28 18.5 27.8721 18.5 27.7143V12.2857C18.5 12.1279 18.3508 12 18.1667 12Z" fill="#979992" stroke="#979992" stroke-linecap="round" stroke-linejoin="round"/>
<path d="M23.1667 18.8572H21.8333C21.6492 18.8572 21.5 18.9851 21.5 19.1429V27.7143C21.5 27.8721 21.6492 28 21.8333 28H23.1667C23.3508 28 23.5 27.8721 23.5 27.7143V19.1429C23.5 18.9851 23.3508 18.8572 23.1667 18.8572Z" fill="#979992" stroke="#979992" stroke-linecap="round" stroke-linejoin="round"/>
<path d="M28.1667 14.8572H26.8333C26.6492 14.8572 26.5 14.9851 26.5 15.1429V27.7143C26.5 27.8721 26.6492 28 26.8333 28H28.1667C28.3508 28 28.5 27.8721 28.5 27.7143V15.1429C28.5 14.9851 28.3508 14.8572 28.1667 14.8572Z" fill="#979992" stroke="#979992" stroke-linecap="round" stroke-linejoin="round"/>
</svg>
