<svg width="31" height="29" viewBox="0 0 31 29" fill="none" xmlns="http://www.w3.org/2000/svg">
<rect y="0.0703735" width="31" height="28" rx="4" fill="#FEDEE5"/>
<path fill-rule="evenodd" clip-rule="evenodd" d="M11.7669 7.52526C12.4102 7.4739 13.0209 7.22088 13.512 6.80225C14.0666 6.32983 14.7714 6.07037 15.5 6.07037C16.2286 6.07037 16.9334 6.32983 17.488 6.80225C17.9791 7.22088 18.5898 7.4739 19.2331 7.52526C19.9595 7.58332 20.6415 7.89823 21.1568 8.41354C21.6721 8.92885 21.9871 9.61086 22.0451 10.3373C22.0961 10.9803 22.3491 11.5913 22.7681 12.0823C23.2405 12.637 23.5 13.3418 23.5 14.0704C23.5 14.799 23.2405 15.5037 22.7681 16.0584C22.3495 16.5495 22.0965 17.1602 22.0451 17.8034C21.9871 18.5299 21.6721 19.2119 21.1568 19.7272C20.6415 20.2425 19.9595 20.5574 19.2331 20.6155C18.5898 20.6668 17.9791 20.9199 17.488 21.3385C16.9334 21.8109 16.2286 22.0704 15.5 22.0704C14.7714 22.0704 14.0666 21.8109 13.512 21.3385C13.0209 20.9199 12.4102 20.6668 11.7669 20.6155C11.0405 20.5574 10.3585 20.2425 9.84317 19.7272C9.32785 19.2119 9.01294 18.5299 8.95489 17.8034C8.90353 17.1602 8.65051 16.5495 8.23187 16.0584C7.75946 15.5037 7.5 14.799 7.5 14.0704C7.5 13.3418 7.75946 12.637 8.23187 12.0823C8.65051 11.5912 8.90353 10.9806 8.95489 10.3373C9.01294 9.61086 9.32785 8.92885 9.84317 8.41354C10.3585 7.89823 11.0405 7.58332 11.7669 7.52526ZM19.2071 12.7774C19.3892 12.5887 19.49 12.3361 19.4877 12.0739C19.4855 11.8117 19.3803 11.5609 19.1949 11.3755C19.0095 11.1901 18.7587 11.0849 18.4965 11.0826C18.2343 11.0804 17.9816 11.1812 17.793 11.3633L14.5 14.6564L13.207 13.3634C13.0184 13.1812 12.7657 13.0804 12.5035 13.0827C12.2413 13.085 11.9905 13.1901 11.8051 13.3755C11.6197 13.561 11.5145 13.8118 11.5123 14.074C11.51 14.3362 11.6108 14.5888 11.7929 14.7774L13.793 16.7774C13.9805 16.9649 14.2348 17.0702 14.5 17.0702C14.7652 17.0702 15.0195 16.9649 15.207 16.7774L19.2071 12.7774Z" fill="#F30039"/>
</svg>
