<svg width="19" height="19" viewBox="0 0 19 19" fill="none" xmlns="http://www.w3.org/2000/svg">
<path fill-rule="evenodd" clip-rule="evenodd" d="M13.1636 4.96647C13.3913 4.95148 13.6149 5.02759 13.7853 5.17808C13.9556 5.32856 14.0586 5.5411 14.0718 5.76895L14.4914 13.0602C14.5045 13.2881 14.4266 13.5126 14.2748 13.6843C14.1231 13.8561 13.9099 13.961 13.6822 13.9761L6.39466 14.4571C6.16928 14.468 5.94936 14.39 5.78226 14.2397C5.61517 14.0894 5.51427 13.879 5.5013 13.6536C5.48833 13.4283 5.56433 13.2062 5.71293 13.0351C5.86153 12.864 6.07083 12.7576 6.29577 12.7388L11.51 12.3946L4.06871 5.8193C3.89837 5.66878 3.79531 5.45619 3.78219 5.22829C3.76907 5.0004 3.84698 4.77586 3.99876 4.60408C4.15055 4.4323 4.36379 4.32735 4.59157 4.31232C4.81935 4.29728 5.04301 4.3734 5.21335 4.52391L12.6546 11.0992L12.3543 5.88231C12.3413 5.65446 12.4192 5.42998 12.5709 5.25823C12.7227 5.08649 12.9359 4.98154 13.1636 4.96647Z" fill="#F30039"/>
</svg>
