<svg width="16" height="16" viewBox="0 0 16 16" fill="none" xmlns="http://www.w3.org/2000/svg">
<path d="M12.72 7.12C10.16 5.6 5.88 5.44 3.44 6.2C3.04 6.32 2.64 6.08 2.52 5.72C2.4 5.32 2.64 4.92 3 4.8C5.84 3.96 10.52 4.12 13.48 5.88C13.84 6.08 13.96 6.56 13.76 6.92C13.56 7.2 13.08 7.32 12.72 7.12ZM12.64 9.36C12.44 9.64 12.08 9.76 11.8 9.56C9.64 8.24 6.36 7.84 3.84 8.64C3.52 8.72 3.16 8.56 3.08 8.24C3 7.92 3.16 7.56 3.48 7.48C6.4 6.6 10 7.04 12.48 8.56C12.72 8.68 12.84 9.08 12.64 9.36ZM11.68 11.56C11.52 11.8 11.24 11.88 11 11.72C9.12 10.56 6.76 10.32 3.96 10.96C3.68 11.04 3.44 10.84 3.36 10.6C3.28 10.32 3.48 10.08 3.72 10C6.76 9.32 9.4 9.6 11.48 10.88C11.76 11 11.8 11.32 11.68 11.56ZM8 0C6.94943 0 5.90914 0.206926 4.93853 0.608964C3.96793 1.011 3.08601 1.60028 2.34315 2.34315C0.842855 3.84344 0 5.87827 0 8C0 10.1217 0.842855 12.1566 2.34315 13.6569C3.08601 14.3997 3.96793 14.989 4.93853 15.391C5.90914 15.7931 6.94943 16 8 16C10.1217 16 12.1566 15.1571 13.6569 13.6569C15.1571 12.1566 16 10.1217 16 8C16 6.94943 15.7931 5.90914 15.391 4.93853C14.989 3.96793 14.3997 3.08601 13.6569 2.34315C12.914 1.60028 12.0321 1.011 11.0615 0.608964C10.0909 0.206926 9.05058 0 8 0Z" fill="#5C5F54"/>
</svg>
