<svg width="13" height="12" viewBox="0 0 13 12" fill="none" xmlns="http://www.w3.org/2000/svg">
<path d="M0.952148 6C0.952148 2.96243 3.41458 0.5 6.45215 0.5C9.48971 0.5 11.9521 2.96243 11.9521 6C11.9521 9.03757 9.48971 11.5 6.45215 11.5C3.41458 11.5 0.952148 9.03757 0.952148 6Z" stroke="#F30039"/>
<path d="M6.7988 5.99993L8.55661 3.90462C8.58607 3.8698 8.5613 3.81689 8.51576 3.81689H7.98139C7.94991 3.81689 7.91978 3.83096 7.89902 3.85506L6.44924 5.58341L4.99947 3.85506C4.97938 3.83096 4.94924 3.81689 4.9171 3.81689H4.38273C4.33719 3.81689 4.31241 3.8698 4.34188 3.90462L6.09969 5.99993L4.34188 8.09524C4.33528 8.103 4.33104 8.1125 4.32968 8.12259C4.32831 8.13269 4.32987 8.14297 4.33417 8.1522C4.33847 8.16144 4.34533 8.16925 4.35394 8.1747C4.36255 8.18015 4.37254 8.18302 4.38273 8.18297H4.9171C4.94857 8.18297 4.97871 8.1689 4.99947 8.1448L6.44924 6.41645L7.89902 8.1448C7.91911 8.1689 7.94924 8.18297 7.98139 8.18297H8.51576C8.5613 8.18297 8.58607 8.13006 8.55661 8.09524L6.7988 5.99993Z" fill="#F30039"/>
</svg>
