<svg width="16" height="14" viewBox="0 0 16 14" fill="none" xmlns="http://www.w3.org/2000/svg">
<path d="M5.45486 13.9953C5.31668 13.9953 5.18714 13.969 5.06623 13.9165C4.94532 13.8647 4.83305 13.7763 4.72941 13.6511L0.273082 8.26888C0.083083 8.03941 -0.00777087 7.74193 0.000519984 7.37644C0.00950174 7.01178 0.108992 6.71472 0.29899 6.48524C0.488989 6.25577 0.730806 6.14103 1.02444 6.14103C1.31807 6.14103 1.55989 6.25577 1.74989 6.48524L5.45486 10.96L14.238 0.352024C14.428 0.12255 14.6743 0.0078125 14.9769 0.0078125C15.2788 0.0078125 15.5248 0.12255 15.7148 0.352024C15.9048 0.581498 15.9998 0.878563 15.9998 1.24322C15.9998 1.60871 15.9048 1.90619 15.7148 2.13566L6.18031 13.6511C6.07668 13.7763 5.9644 13.8647 5.8435 13.9165C5.72259 13.969 5.59304 13.9953 5.45486 13.9953Z" fill="#17D05B"/>
</svg>
