<svg width="28" height="28" viewBox="0 0 28 28" fill="none" xmlns="http://www.w3.org/2000/svg">
<rect x="0.25" y="0.25" width="27.5" height="27.5" rx="3.75" stroke="#979992" stroke-width="0.5"/>
<path d="M10.25 20C9.8375 20 9.48425 19.8693 9.19025 19.608C8.89625 19.3467 8.7495 19.0329 8.75 18.6667V10C8.5375 10 8.35925 9.936 8.21525 9.808C8.07125 9.68 7.9995 9.52178 8 9.33334C8 9.14445 8.072 8.986 8.216 8.858C8.36 8.73 8.538 8.66622 8.75 8.66667H11.75C11.75 8.47778 11.822 8.31934 11.966 8.19134C12.11 8.06334 12.288 7.99956 12.5 8H15.5C15.7125 8 15.8907 8.064 16.0347 8.192C16.1787 8.32 16.2505 8.47822 16.25 8.66667H19.25C19.4625 8.66667 19.6407 8.73067 19.7847 8.85867C19.9287 8.98667 20.0005 9.14489 20 9.33334C20 9.52222 19.928 9.68067 19.784 9.80867C19.64 9.93667 19.462 10.0004 19.25 10V18.6667C19.25 19.0333 19.103 19.3473 18.809 19.6087C18.515 19.87 18.162 20.0004 17.75 20H10.25ZM10.25 10V18.6667H17.75V10H10.25ZM11.75 16.6667C11.75 16.8556 11.822 17.014 11.966 17.142C12.11 17.27 12.288 17.3338 12.5 17.3333C12.7125 17.3333 12.8908 17.2693 13.0348 17.1413C13.1788 17.0133 13.2505 16.8551 13.25 16.6667V12C13.25 11.8111 13.178 11.6527 13.034 11.5247C12.89 11.3967 12.712 11.3329 12.5 11.3333C12.2875 11.3333 12.1093 11.3973 11.9653 11.5253C11.8213 11.6533 11.7495 11.8116 11.75 12V16.6667ZM14.75 16.6667C14.75 16.8556 14.822 17.014 14.966 17.142C15.11 17.27 15.288 17.3338 15.5 17.3333C15.7125 17.3333 15.8907 17.2693 16.0347 17.1413C16.1787 17.0133 16.2505 16.8551 16.25 16.6667V12C16.25 11.8111 16.178 11.6527 16.034 11.5247C15.89 11.3967 15.712 11.3329 15.5 11.3333C15.2875 11.3333 15.1092 11.3973 14.9652 11.5253C14.8212 11.6533 14.7495 11.8116 14.75 12V16.6667Z" fill="#979992"/>
</svg>
