<svg width="40" height="40" viewBox="0 0 40 40" fill="none" xmlns="http://www.w3.org/2000/svg">
<path d="M25.3333 17.6667V20M25.3333 20V22.3333M25.3333 20H28M25.3333 20H22.6667M20.8889 16.1111C20.8889 16.9362 20.5143 17.7276 19.8475 18.311C19.1807 18.8944 18.2763 19.2222 17.3333 19.2222C16.3903 19.2222 15.486 18.8944 14.8192 18.311C14.1524 17.7276 13.7778 16.9362 13.7778 16.1111C13.7778 15.286 14.1524 14.4947 14.8192 13.9112C15.486 13.3278 16.3903 13 17.3333 13C18.2763 13 19.1807 13.3278 19.8475 13.9112C20.5143 14.4947 20.8889 15.286 20.8889 16.1111V16.1111ZM12 26.2222C12 24.9845 12.5619 23.7976 13.5621 22.9224C14.5623 22.0472 15.9188 21.5556 17.3333 21.5556C18.7478 21.5556 20.1044 22.0472 21.1046 22.9224C22.1048 23.7976 22.6667 24.9845 22.6667 26.2222V27H12V26.2222Z" stroke="#003A49" stroke-linecap="round" stroke-linejoin="round"/>
<rect x="0.25" y="0.25" width="39.5" height="39.5" rx="3.75" stroke="#003A49" stroke-width="0.5"/>
</svg>
