<svg width="40" height="40" viewBox="0 0 40 40" fill="none" xmlns="http://www.w3.org/2000/svg">
<path d="M20 13.2036C20.4777 12.662 21.109 12.2787 21.81 12.1047C22.5109 11.9307 23.2482 11.9743 23.9237 12.2297C24.5992 12.485 25.181 12.9401 25.5915 13.5342C26.0021 14.1283 26.222 14.8334 26.222 15.5556C26.222 16.2777 26.0021 16.9828 25.5915 17.5769C25.181 18.1711 24.5992 18.6261 23.9237 18.8814C23.2482 19.1368 22.5109 19.1804 21.81 19.0064C21.109 18.8324 20.4777 18.4492 20 17.9076M22.6667 28H28V27.1111C28.0001 26.1749 27.7538 25.2551 27.2858 24.4442C26.8177 23.6333 26.1445 22.9599 25.3337 22.4917C24.5229 22.0236 23.6031 21.7771 22.6669 21.777C21.7306 21.777 20.8108 22.0234 20 22.4916M22.6667 28H12V27.1111C12 25.6966 12.5619 24.3401 13.5621 23.3399C14.5623 22.3397 15.9188 21.7778 17.3333 21.7778C18.7478 21.7778 20.1044 22.3397 21.1046 23.3399C22.1048 24.3401 22.6667 25.6966 22.6667 27.1111V28ZM20.8889 15.5556C20.8889 16.4985 20.5143 17.4029 19.8475 18.0697C19.1807 18.7365 18.2763 19.1111 17.3333 19.1111C16.3903 19.1111 15.486 18.7365 14.8192 18.0697C14.1524 17.4029 13.7778 16.4985 13.7778 15.5556C13.7778 14.6126 14.1524 13.7082 14.8192 13.0414C15.486 12.3746 16.3903 12 17.3333 12C18.2763 12 19.1807 12.3746 19.8475 13.0414C20.5143 13.7082 20.8889 14.6126 20.8889 15.5556V15.5556Z" stroke="#003A49" stroke-linecap="round" stroke-linejoin="round"/>
<rect x="0.25" y="0.25" width="39.5" height="39.5" rx="3.75" stroke="#2B2F33" stroke-width="0.5"/>
</svg>
