<svg width="40" height="40" viewBox="0 0 40 40" fill="none" xmlns="http://www.w3.org/2000/svg">
<rect width="40" height="40" rx="4" fill="#034685"/>
<path d="M20 12.5C20.9283 12.5 21.8185 12.8687 22.4749 13.5251C23.1313 14.1815 23.5 15.0717 23.5 16C23.5 16.9283 23.1313 17.8185 22.4749 18.4749C21.8185 19.1313 20.9283 19.5 20 19.5C19.0717 19.5 18.1815 19.1313 17.5251 18.4749C16.8687 17.8185 16.5 16.9283 16.5 16C16.5 15.0717 16.8687 14.1815 17.5251 13.5251C18.1815 12.8687 19.0717 12.5 20 12.5ZM20 22.5C22.1493 22.5 24.0695 22.9363 25.4339 23.6185C26.8281 24.3155 27.5 25.1863 27.5 26V27.5H12.5V26C12.5 25.1863 13.1719 24.3155 14.5661 23.6185C15.9305 22.9363 17.8507 22.5 20 22.5Z" fill="#034685" stroke="#F7F9FA"/>
</svg>
