<svg width="32" height="32" viewBox="0 0 32 32" fill="none" xmlns="http://www.w3.org/2000/svg">
<g clip-path="url(#clip0_9652_713)">
<path fill-rule="evenodd" clip-rule="evenodd" d="M0 0H32V2.46253H0V0ZM0 4.925H32V7.38753H0V4.925ZM0 9.84373H32V12.3125H0V9.84373ZM0 14.7687H32V17.2313H0V14.7687ZM0 19.6937H32V22.1563H0V19.6937ZM0 24.6125H32V27.075H0V24.6125ZM0 29.5375H32V32H0V29.5375Z" fill="#BD3D44"/>
<path fill-rule="evenodd" clip-rule="evenodd" d="M0 2.46252H32V4.92499H0V2.46252ZM0 7.38746H32V9.84372H0V7.38746ZM0 12.3063H32V14.7687H0V12.3063ZM0 17.2313H32V19.6937H0V17.2313ZM0 22.1563H32V24.6187H0V22.1563ZM0 27.075H32V29.5375H0V27.075Z" fill="white"/>
<path fill-rule="evenodd" clip-rule="evenodd" d="M0 0H12.7993V17.2313H0V0Z" fill="#192F5D"/>
<path fill-rule="evenodd" clip-rule="evenodd" d="M1.06567 0.737457L1.18409 1.41859H1.55911L1.25644 1.83739L1.3716 2.52486L1.06567 2.09986L0.763038 2.51859L0.87816 1.83739L0.572266 1.41859H0.953845L1.06567 0.737457ZM3.20055 0.737457L3.31567 1.41859H3.69395L3.38802 1.83739L3.50318 2.52486L3.20055 2.09986L2.89462 2.51859L3.00974 1.83739L2.70711 1.41859H3.08213L3.20055 0.737457ZM5.33213 0.737457L5.45055 1.41866H5.82227L5.51963 1.83746L5.63472 2.52492L5.32883 2.09992L5.0262 2.51866L5.14132 1.83746L4.83539 1.41866H5.2137L5.33213 0.737457ZM7.467 0.737457L7.58209 1.41866H7.96041L7.65448 1.83746L7.7729 2.52492L7.46697 2.09992L7.16107 2.51866L7.27949 1.83746L6.97356 1.41866H7.34858L7.467 0.737457ZM9.59858 0.737457L9.717 1.41866H10.092L9.78935 1.83746L9.90448 2.52492L9.59855 2.09992L9.29591 2.51866L9.41107 1.83746L9.10844 1.41866H9.48342L9.59858 0.737457ZM11.7334 0.737457L11.8485 1.41866H12.2269L11.9209 1.83746L12.0394 2.52492L11.7334 2.09992L11.4275 2.51866L11.5459 1.83746L11.24 1.41866H11.6183L11.7334 0.737457ZM2.13476 2.46232L2.24988 3.14366H2.62816L2.32223 3.56232L2.43409 4.24366L2.13802 3.82486L1.83213 4.24359L1.94065 3.56239L1.64462 3.14359H2.01963L2.13476 2.46232ZM4.26634 2.46232L4.38476 3.14366H4.75974L4.45381 3.56232L4.57227 4.24366L4.2663 3.82486L3.96041 4.24359L4.07883 3.56239L3.7729 3.14359H4.15118L4.26634 2.46232ZM6.40121 2.46232L6.5163 3.14366H6.89462L6.58869 3.56232L6.70381 4.24366L6.40118 3.82486L6.09528 4.24359L6.21041 3.56246L5.90777 3.14366H6.28279L6.40121 2.46232ZM8.53279 2.46232L8.65121 3.14366H9.0262L8.72027 3.56232L8.83869 4.24366L8.53276 3.82486L8.23012 4.24359L8.34528 3.56239L8.03935 3.14359H8.42093L8.53279 2.46232ZM10.6676 2.46232L10.7828 3.14366H11.1611L10.8551 3.56232L10.9703 4.24366L10.6676 3.82486L10.3617 4.24359L10.4769 3.56239L10.1742 3.14359H10.5492L10.6676 2.46232ZM1.06567 4.18126L1.18409 4.87499H1.55911L1.25644 5.29372L1.3716 5.97499L1.06567 5.54999L0.763038 5.97499L0.87816 5.28746L0.572266 4.86879H0.953845L1.06567 4.18126ZM3.20055 4.18126L3.31567 4.86859H3.69395L3.38802 5.28732L3.50318 5.96866L3.20055 5.54359L2.89462 5.96859L3.00974 5.28112L2.70711 4.86239H3.08213L3.20055 4.18126ZM5.33213 4.18126L5.45055 4.86872H5.82227L5.51963 5.28746L5.63472 5.96879L5.32883 5.54372L5.0262 5.96872L5.14132 5.28126L4.83539 4.86252H5.2137L5.33213 4.18126ZM7.467 4.18126L7.58209 4.86872H7.96041L7.65448 5.28746L7.7729 5.96879L7.46697 5.54372L7.16107 5.96872L7.27949 5.28126L6.97356 4.86252H7.34858L7.467 4.18126ZM9.59858 4.18126L9.717 4.86872H10.092L9.78935 5.28739L9.90448 5.96872L9.59855 5.54366L9.29591 5.96866L9.41107 5.28119L9.10844 4.86246H9.48342L9.59858 4.18126ZM11.7334 4.18126L11.8485 4.86872H12.2269L11.9209 5.28746L12.0394 5.96879L11.7334 5.54372L11.4275 5.96872L11.5459 5.28126L11.24 4.86252H11.6183L11.7334 4.18126ZM2.13476 5.90619L2.24988 6.58746H2.62816L2.32223 7.00612L2.43739 7.69366L2.13476 7.26866L1.82883 7.68739L1.94395 7.00619L1.64132 6.58746H2.01637L2.13476 5.90619ZM4.26634 5.90619L4.38476 6.58746H4.75974L4.45381 7.00612L4.57227 7.69366L4.2663 7.26866L3.96041 7.68739L4.07883 7.00619L3.7729 6.58746H4.15118L4.26634 5.90619ZM6.40121 5.90619L6.5163 6.58746H6.89462L6.58869 7.00612L6.70381 7.69366L6.40118 7.26866L6.09528 7.68739L6.21041 7.00619L5.90777 6.58746H6.28279L6.40121 5.90619ZM8.53279 5.90619L8.65121 6.58746H9.0262L8.72356 7.00612L8.83869 7.69366L8.53276 7.26866L8.23012 7.68739L8.34528 7.00619L8.03935 6.58746H8.42093L8.53279 5.90619ZM10.6676 5.90619L10.7828 6.58746H11.1611L10.8551 7.00612L10.9703 7.69366L10.6676 7.26866L10.3617 7.68739L10.4769 7.00619L10.1742 6.58746H10.5492L10.6676 5.90619ZM1.06567 7.63119L1.18409 8.31246H1.55911L1.25644 8.73112L1.3716 9.41866L1.06567 8.99366L0.763038 9.41239L0.87816 8.73119L0.572266 8.31246H0.953845L1.06567 7.63119ZM3.20055 7.63119L3.31567 8.31246H3.69395L3.38802 8.73112L3.50318 9.41246L3.20055 8.99366L2.89462 9.41239L3.00974 8.73119L2.70711 8.31246H3.08213L3.20055 7.63119ZM5.33213 7.63119L5.45055 8.31246H5.82227L5.51963 8.73112L5.63472 9.41866L5.32883 8.99366L5.0262 9.41239L5.14132 8.73119L4.83539 8.31246H5.2137L5.33213 7.63119ZM7.467 7.63119L7.58209 8.31246H7.96041L7.65448 8.73112L7.7729 9.41866L7.46697 8.99366L7.16107 9.41239L7.27949 8.73119L6.97356 8.31246H7.34858L7.467 7.63119ZM9.59858 7.63119L9.717 8.31246H10.092L9.78935 8.73112L9.90448 9.41866L9.59855 8.99366L9.29591 9.41239L9.41107 8.73119L9.10844 8.31246H9.48342L9.59858 7.63119ZM11.7334 7.63119L11.8485 8.31246H12.2269L11.9209 8.73112L12.0394 9.41866L11.7334 8.99366L11.4275 9.41239L11.5459 8.73119L11.24 8.31246H11.6183L11.7334 7.63119ZM2.13476 9.35619L2.24988 10.0375H2.62816L2.32223 10.4561L2.43739 11.1375L2.13476 10.7125L1.82883 11.1375L1.94395 10.4499L1.64132 10.0312H2.01637L2.13476 9.35619ZM4.26634 9.35619L4.38476 10.0375H4.75974L4.45381 10.4561L4.57227 11.1375L4.2663 10.7125L3.96041 11.1375L4.07883 10.4499L3.7729 10.0312H4.15118L4.26634 9.35619ZM6.40121 9.35619L6.5163 10.0375H6.89462L6.58869 10.4561L6.70381 11.1375L6.40118 10.7125L6.09528 11.1375L6.21041 10.4499L5.90777 10.0312H6.28279L6.40121 9.35619ZM8.53279 9.35619L8.65121 10.0375H9.0262L8.72356 10.4561L8.83869 11.1375L8.53276 10.7125L8.23012 11.1375L8.34528 10.4499L8.03935 10.0312H8.42093L8.53279 9.35619ZM10.6676 9.35619L10.7828 10.0375H11.1611L10.8551 10.4561L10.9703 11.1375L10.6676 10.7125L10.3617 11.1375L10.4769 10.4499L10.1742 10.0312H10.5492L10.6676 9.35619ZM1.06567 11.0749L1.18409 11.7625H1.55911L1.25644 12.1811L1.3716 12.8562L1.06567 12.4375L0.763038 12.8561L0.87816 12.1749L0.572266 11.7562H0.953845L1.06567 11.0749ZM3.20055 11.0749L3.31567 11.7625H3.69395L3.38802 12.1811L3.50648 12.8562L3.20051 12.4375L2.89462 12.8561L3.01304 12.1749L2.70711 11.7562H3.08213L3.20055 11.0749ZM5.33213 11.0749L5.45055 11.7625H5.82227L5.51963 12.1811L5.63472 12.8562L5.32883 12.4375L5.0262 12.8561L5.14132 12.1749L4.83539 11.7562H5.2137L5.33213 11.0749ZM7.467 11.0749L7.58209 11.7625H7.96041L7.65448 12.1811L7.7729 12.8562L7.46697 12.4375L7.16107 12.8561L7.27949 12.1749L6.97356 11.7562H7.34858L7.467 11.0749ZM9.59858 11.0749L9.717 11.7625H10.092L9.78935 12.1811L9.90448 12.8562L9.59855 12.4375L9.29591 12.8561L9.41107 12.1749L9.10844 11.7562H9.48342L9.59858 11.0749ZM11.7334 11.0749L11.8485 11.7625H12.2269L11.9209 12.1811L12.0394 12.8562L11.7334 12.4375L11.4275 12.8561L11.5459 12.1749L11.24 11.7562H11.6183L11.7334 11.0749ZM2.13476 12.7999L2.24988 13.4812H2.62816L2.32223 13.8999L2.43739 14.5875L2.13476 14.1625L1.82883 14.5811L1.94395 13.8999L1.64132 13.4812H2.01637L2.13476 12.7999ZM4.26634 12.7999L4.38476 13.4812H4.75974L4.45381 13.8999L4.57227 14.5875L4.2663 14.1625L3.96041 14.5811L4.07883 13.8999L3.7729 13.4812H4.15118L4.26634 12.7999ZM6.40121 12.7999L6.5163 13.4812H6.89462L6.58869 13.8999L6.70381 14.5875L6.40118 14.1625L6.09528 14.5811L6.21041 13.8999L5.90777 13.4812H6.28279L6.40121 12.7999ZM8.53279 12.7999L8.65121 13.4812H9.0262L8.72356 13.8999L8.83869 14.5875L8.53276 14.1625L8.23012 14.5811L8.34528 13.8999L8.03935 13.4812H8.42093L8.53279 12.7999ZM10.6676 12.7999L10.7828 13.4812H11.1611L10.8551 13.8999L10.9703 14.5875L10.6676 14.1625L10.3617 14.5811L10.4769 13.8999L10.1742 13.4812H10.5492L10.6676 12.7999ZM1.06567 14.5249L1.18409 15.2062H1.55911L1.25644 15.6249L1.3716 16.3062L1.06567 15.8875L0.763038 16.3061L0.87816 15.6187L0.572266 15.1999H0.953845L1.06567 14.5249ZM3.20055 14.5249L3.31567 15.2062H3.69395L3.38802 15.6249L3.50648 16.3062L3.20051 15.8875L2.89462 16.3061L3.01304 15.6187L2.70711 15.1999H3.08213L3.20055 14.5249ZM5.33213 14.5249L5.45055 15.2062H5.82227L5.5262 15.6249L5.64132 16.3062L5.33539 15.8875L5.03276 16.3061L5.14791 15.6187L4.84198 15.1999H5.22027L5.33213 14.5249ZM7.467 14.5249L7.58209 15.2062H7.96041L7.65448 15.6249L7.7729 16.3062L7.46697 15.8875L7.16107 16.3061L7.27949 15.6187L6.97356 15.1999H7.34858L7.467 14.5249ZM9.59858 14.5249L9.717 15.2062H10.092L9.78935 15.6249L9.90448 16.3062L9.59855 15.8875L9.29591 16.3061L9.41107 15.6187L9.10844 15.1999H9.48342L9.59858 14.5249ZM11.7334 14.5249L11.8485 15.2062H12.2269L11.9209 15.6249L12.0394 16.3062L11.7334 15.8875L11.4275 16.3061L11.5459 15.6187L11.24 15.1999H11.6183L11.7334 14.5249Z" fill="white"/>
</g>
<defs>
<clipPath id="clip0_9652_713">
<rect width="32" height="32" rx="16" fill="white"/>
</clipPath>
</defs>
</svg>
