<svg width="16" height="14" viewBox="0 0 16 14" fill="none" xmlns="http://www.w3.org/2000/svg">
<path id="Vector" fill-rule="evenodd" clip-rule="evenodd" d="M8.293 0.299035C8.48053 0.111564 8.73484 0.00624847 9 0.00624847C9.26516 0.00624847 9.51947 0.111564 9.707 0.299035L15.707 6.29904C15.8945 6.48656 15.9998 6.74087 15.9998 7.00603C15.9998 7.2712 15.8945 7.52551 15.707 7.71303L9.707 13.713C9.5184 13.8952 9.2658 13.996 9.0036 13.9937C8.7414 13.9914 8.49059 13.8863 8.30518 13.7009C8.11977 13.5154 8.0146 13.2646 8.01233 13.0024C8.01005 12.7402 8.11084 12.4876 8.293 12.299L12.586 8.00603H1C0.734784 8.00603 0.48043 7.90068 0.292893 7.71314C0.105357 7.52561 0 7.27125 0 7.00603C0 6.74082 0.105357 6.48646 0.292893 6.29893C0.48043 6.11139 0.734784 6.00603 1 6.00603H12.586L8.293 1.71303C8.10553 1.52551 8.00021 1.2712 8.00021 1.00603C8.00021 0.740871 8.10553 0.486563 8.293 0.299035Z" fill="#034685"/>
</svg>
