<svg width="16" height="16" viewBox="0 0 16 16" fill="none" xmlns="http://www.w3.org/2000/svg">
<path d="M5.92 6.40909H15.52C15.608 6.40909 15.68 6.32727 15.68 6.22727V4.95455C15.68 4.85455 15.608 4.77273 15.52 4.77273H5.92C5.832 4.77273 5.76 4.85455 5.76 4.95455V6.22727C5.76 6.32727 5.832 6.40909 5.92 6.40909ZM5.76 11.0455C5.76 11.1455 5.832 11.2273 5.92 11.2273H15.52C15.608 11.2273 15.68 11.1455 15.68 11.0455V9.77273C15.68 9.67273 15.608 9.59091 15.52 9.59091H5.92C5.832 9.59091 5.76 9.67273 5.76 9.77273V11.0455ZM15.84 0H0.16C0.072 0 0 0.0818182 0 0.181818V1.45455C0 1.55455 0.072 1.63636 0.16 1.63636H15.84C15.928 1.63636 16 1.55455 16 1.45455V0.181818C16 0.0818182 15.928 0 15.84 0ZM15.84 14.3636H0.16C0.072 14.3636 0 14.4455 0 14.5455V15.8182C0 15.9182 0.072 16 0.16 16H15.84C15.928 16 16 15.9182 16 15.8182V14.5455C16 14.4455 15.928 14.3636 15.84 14.3636ZM0.608 10.9568L3.734 8.15909C3.75505 8.14029 3.77206 8.11631 3.78376 8.08894C3.79546 8.06158 3.80154 8.03156 3.80154 8.00114C3.80154 7.97071 3.79546 7.94069 3.78376 7.91333C3.77206 7.88597 3.75505 7.86198 3.734 7.84318L0.608 5.04318C0.492 4.93864 0.32 5.03182 0.32 5.2V10.7977C0.319989 10.8357 0.329378 10.8729 0.347094 10.9051C0.36481 10.9372 0.390137 10.9631 0.42018 10.9797C0.450223 10.9963 0.483769 11.003 0.516982 10.9989C0.550196 10.9949 0.581737 10.9803 0.608 10.9568Z" fill="#6F7269"/>
</svg>
