<svg width="33" height="28" viewBox="0 0 33 28" fill="none" xmlns="http://www.w3.org/2000/svg">
<path d="M14.7866 21.4286C14.7866 21.8832 14.9672 22.3193 15.2887 22.6408C15.6102 22.9622 16.0462 23.1429 16.5009 23.1429C16.9556 23.1429 17.3916 22.9622 17.7131 22.6408C18.0346 22.3193 18.2152 21.8832 18.2152 21.4286C18.2152 20.9739 18.0346 20.5379 17.7131 20.2164C17.3916 19.8949 16.9556 19.7143 16.5009 19.7143C16.0462 19.7143 15.6102 19.8949 15.2887 20.2164C14.9672 20.5379 14.7866 20.9739 14.7866 21.4286ZM15.358 10.5714V17.1429C15.358 17.3 15.4866 17.4286 15.6438 17.4286H17.358C17.5152 17.4286 17.6438 17.3 17.6438 17.1429V10.5714C17.6438 10.4143 17.5152 10.2857 17.358 10.2857H15.6438C15.4866 10.2857 15.358 10.4143 15.358 10.5714ZM32.3473 26.2857L17.4902 0.571429C17.2688 0.189286 16.8866 0 16.5009 0C16.1152 0 15.7295 0.189286 15.5116 0.571429L0.654476 26.2857C0.215191 27.05 0.765191 28 1.64376 28H31.358C32.2366 28 32.7866 27.05 32.3473 26.2857ZM4.36519 25.2893L16.5009 4.28214L28.6366 25.2893H4.36519Z" fill="#F30039"/>
</svg>
